<?xml version="1.0" encoding="utf-8"?>
<!-- Generator: Adobe Illustrator 26.1.0, SVG Export Plug-In . SVG Version: 6.00 Build 0)  -->
<svg version="1.1" id="Layer_1" xmlns="http://www.w3.org/2000/svg" xmlns:xlink="http://www.w3.org/1999/xlink" x="0px" y="0px"
	 viewBox="0 0 62.8 62.8" style="enable-background:new 0 0 62.8 62.8;" xml:space="preserve">
<style type="text/css">
	.st0{clip-path:url(#SVGID_00000083794499483192551010000015858944284801093805_);}
	.st1{fill:#FFFFFF;}
</style>
<g>
	<g>
		<defs>
			<rect id="SVGID_1_" width="62.8" height="62.8"/>
		</defs>
		<clipPath id="SVGID_00000094614364314849442610000008973671906091523998_">
			<use xlink:href="#SVGID_1_"  style="overflow:visible;"/>
		</clipPath>
		<g id="a" style="clip-path:url(#SVGID_00000094614364314849442610000008973671906091523998_);">
			<path class="st1" d="M12,0l-0.9,0.9L0.9,11.1L0,12L0.9,13l20,20L4.9,49.1c-0.2,0.2-0.3,0.3-0.4,0.6l-2.5,9.6
				c-0.2,0.7,0.2,1.4,0.9,1.5c0.2,0.1,0.4,0.1,0.6,0l9.6-2.5c0.2-0.1,0.4-0.2,0.6-0.4L58,13.6l1-1c2.4-2.4,2.4-6.4,0-8.8
				c-2.4-2.4-6.4-2.4-8.8,0L33,21l-20-20L12,0z M12,3.6l2.1,2.1l-1.6,1.6l1.8,1.8L16,7.6l2,2l-2.9,2.9l1.8,1.8l2.9-2.9l2,2l-1.6,1.6
				l1.8,1.8l1.6-1.6l2,2l-2.9,2.9l1.8,1.8l2.9-2.9l2,2l-1.6,1.6l1.6,1.6l-6.8,6.8L3.6,12L12,3.6z M50.9,6.6l5.2,5.2L12.1,55.9
				l-5.3-5.3L50.9,6.6z M42.9,30.9L42,31.8l-2.5,2.5l1.8,1.8l1.6-1.6l2,2L42,39.5l1.8,1.8l2.9-2.9l2,2L47.2,42l1.8,1.8l1.6-1.6l2,2
				l-2.9,2.9l1.8,1.8l2.9-2.9l2,2l-1.6,1.6l1.8,1.8l1.6-1.6l0.8,0.8l-8.4,8.4l-18-18l-1.8,1.8l18.9,18.9l0.9,0.9l0.9-0.9l10.2-10.2
				l0.9-0.9l-0.9-0.9L42.9,30.9z"/>
		</g>
	</g>
</g>
</svg>
