<svg width="16" height="22" viewBox="0 0 16 22" fill="none" xmlns="http://www.w3.org/2000/svg">
<g clip-path="url(#clip0_153_11259)">
<path d="M15.6414 16.1467C13.6361 14.2725 11.5888 12.4402 9.51756 10.6438C11.3134 10.3265 13.1093 10.0151 14.9111 9.69778C15.5097 9.59598 15.8449 8.86543 15.6953 8.32053C15.5217 7.6918 14.9171 7.43433 14.3185 7.53612C12.9955 7.76965 11.6726 8.0032 10.3496 8.23074C11.5588 6.34455 12.7681 4.45836 13.9832 2.57218C14.7614 1.35663 12.8279 0.230902 12.0497 1.44046C10.625 3.66795 9.19431 5.88947 7.76961 8.11696C7.26677 6.32659 6.72204 4.55416 6.12941 2.79372C5.66847 1.43447 3.50748 2.02128 3.96841 3.38652C4.3635 4.54817 4.72865 5.71583 5.08183 6.88945C4.38744 6.31462 3.68705 5.74575 2.98068 5.18289C2.50778 4.80565 1.85527 4.72182 1.39434 5.18289C1.00524 5.5721 0.921429 6.38646 1.39434 6.76969C2.42395 7.59003 3.43564 8.42833 4.4473 9.27262C3.23809 9.4822 2.02889 9.69776 0.819688 9.90734C0.221072 10.0091 -0.114151 10.7396 0.0355026 11.2845C0.209101 11.9133 0.813696 12.1707 1.41231 12.069C2.84899 11.8175 4.27968 11.566 5.71636 11.3145L1.92112 17.2305C1.14292 18.4461 3.07647 19.5718 3.85467 18.3622C4.86035 16.7994 5.866 15.2306 6.86569 13.6677C7.36254 15.8473 7.79356 18.0449 8.15273 20.2604C8.24851 20.8592 8.99079 21.1885 9.52954 21.0448C10.1641 20.8711 10.4095 20.2664 10.3137 19.6676C9.96653 17.506 9.54748 15.3503 9.0626 13.2187C10.7507 14.7037 12.4209 16.2066 14.0671 17.7395C15.1206 18.7215 16.7069 17.1407 15.6534 16.1527L15.6414 16.1467Z" fill="white"/>
</g>
<defs>
<clipPath id="clip0_153_11259">
<rect width="16" height="20.1566" fill="white" transform="translate(0 0.921707)"/>
</clipPath>
</defs>
</svg>
