<svg width="222" height="281" viewBox="0 0 222 281" fill="none" xmlns="http://www.w3.org/2000/svg">
<g clip-path="url(#clip0_203_4524)">
<path d="M168.38 272.09C168.38 272.09 168.31 272.09 168.28 272.09C168.31 272.09 168.34 272.08 168.38 272.09Z" fill="#070707"/>
<path d="M168.16 272.15C168.16 272.15 168.1 272.2 168.08 272.23C168.1 272.19 168.13 272.17 168.16 272.15Z" fill="#070707"/>
<path d="M167.89 272.25C167.89 272.25 167.81 272.31 167.78 272.37C167.81 272.31 167.84 272.27 167.89 272.25Z" fill="#070707"/>
<path d="M166.21 272.16C166.21 272.16 166.26 272.11 166.28 272.08C166.28 272.08 166.24 272.14 166.21 272.16Z" fill="#070707"/>
<path d="M203.4 222.28C203.32 216.35 202.17 210.67 199.4 205.36C197.49 201.71 194.99 198.49 192.16 195.55C185.74 188.91 178.19 184.27 168.93 182.78C168.82 182.76 168.73 182.69 168.64 182.65C168.6 182.29 168.82 182.04 168.94 181.77C169.44 180.56 169.96 179.36 170.28 178.08C171.11 174.75 171.72 171.38 172.03 167.97C172.62 161.46 172.97 154.93 173.37 148.4C173.83 140.99 174.4 133.59 175.67 126.26C176.93 118.99 179.73 112.49 185 107.19C187.23 104.94 189.75 103.18 192.74 102.11C195.96 100.96 199.28 100.78 202.64 101.02C206.9 101.32 211.11 102.1 215.37 102.37C216.33 102.43 217.29 102.46 218.25 102.44C219.09 102.42 219.8 102.05 219.99 101.19C220.23 100.08 220.81 99.12 221.15 98.06C221.92 95.68 222.04 93.31 221.09 90.95C220.68 89.92 219.89 89.48 218.81 89.66C217.06 89.95 215.3 90.13 213.54 90.3C209.55 90.68 205.57 90.91 201.56 90.59C200.93 90.54 200.5 90.33 200.16 89.77C199.36 88.46 198.54 87.15 197.67 85.89C194.72 81.6 191.57 77.49 187.65 74.02C184.88 71.57 181.93 69.35 178.68 67.57C178.02 67.21 177.67 66.8 177.67 65.97C177.68 64.66 177.41 63.3701 177.02 62.1101C175.71 57.8001 174.24 53.55 172.22 49.5C170.1 45.23 168.08 40.9 165.51 36.87C161.2 30.08 155.6 24.44 149.53 19.24C143.62 14.17 137.11 10.06 129.92 7.03005C124.22 4.63005 118.3 3.03005 112.21 1.97005C100.73 -0.009951 89.19 -0.569951 77.61 0.620049C64.6 1.95005 52.21 5.65005 40.29 10.99C32.39 14.53 25.09 19.09 17.88 23.83C16.82 24.53 15.79 25.27 14.8 26.07C14.26 26.51 13.89 27 14.09 27.75C14.3 28.52 14.71 29.07 15.53 29.23C16.44 29.4 17.34 29.5801 18.26 29.7001C21.18 30.0701 23.84 31.1701 26.34 32.6501C31.57 35.7501 36.5 39.31 41.37 42.94C46.86 47.03 52.17 51.34 58.05 54.89C63.71 58.31 69.37 61.73 75.27 64.75C85.75 70.11 96.78 73.87 108.32 76.18C117.28 77.97 126.36 78.75 135.47 79.07C141.25 79.27 147 78.91 152.72 78.07C157.15 77.42 161.47 76.3 165.79 75.2C168.81 74.43 171.84 73.68 174.7 72.42C175.09 72.25 175.37 72.38 175.66 72.56C176.59 73.11 177.53 73.64 178.43 74.22C184.26 78.02 188.85 83.05 192.7 88.79C192.84 89 193.09 89.19 192.98 89.5C192.91 89.52 192.84 89.55 192.77 89.54C190.79 89.24 188.82 88.94 186.84 88.64C173.66 86.58 160.49 86.59 147.34 88.91C139.52 90.29 132.21 92.99 125.43 97.15C114.45 103.88 105.22 112.58 96.95 122.35C95.39 124.2 93.93 126.14 92.47 128.07C89.23 132.34 86.23 136.76 84.41 141.87C84.36 142 84.32 142.17 84.08 142.15C83.67 141.98 83.41 141.57 83.04 141.3C82.64 141 82.28 140.65 81.87 140.37C76.03 136.25 69.6 133.54 62.55 132.29C49.4 129.97 37.22 132.51 26.03 139.71C22.23 142.15 18.96 145.27 15.89 148.58C9.71001 155.26 5.01001 162.83 2.50001 171.62C-1.09999 184.28 -0.929992 196.82 3.77001 209.24C6.42001 216.24 10.38 222.23 16.25 226.92C17.45 227.88 18.67 228.83 19.91 229.75C20.78 230.39 21.65 231.01 22.55 231.61C23 231.91 23.45 232.2 23.91 232.48C24.66 232.94 25.44 233.34 26.24 233.71C26.96 234.05 27.7 234.36 28.42 234.68C28.74 234.82 29.07 234.96 29.39 235.1C30.38 235.52 31.37 235.95 32.38 236.29C33.38 236.62 34.42 236.85 35.42 237.13C39.03 238.12 42.76 238.4 46.44 238.99C49.79 239.53 53.17 239.43 56.56 239.3C65.62 238.95 74.21 236.81 82.27 232.63C84.55 231.45 86.85 230.29 88.93 228.77C89.25 229.15 89.14 229.56 89.18 229.93C89.46 233.28 90.07 236.56 91.08 239.77C92.94 245.64 95.76 251.06 98.74 256.42C100.61 259.78 103.03 262.69 105.84 265.3C108.76 268.01 111.96 270.3 115.34 272.39C119.69 275.08 124.24 277.24 129.24 278.42C134.55 279.67 139.91 280.43 145.36 280.19C156.6 279.68 166.99 276.46 176.42 270.26C181.06 267.2 185.42 263.82 188.97 259.49C192.17 255.59 195.16 251.56 197.52 247.06C201.59 239.28 203.53 231.04 203.41 222.29L203.4 222.28ZM136.36 12.78C143.45 16.77 149.58 21.97 155.27 27.74C155.51 27.98 155.74 28.23 155.88 28.57C157.66 32.95 159.21 37.42 160.54 41.96C161.78 46.17 162.61 50.47 163.04 54.85C163.14 55.84 163.22 56.83 163.1 57.89C162.25 57.5 161.59 56.9 160.87 56.41C157.85 54.36 154.77 52.4 151.6 50.59C151.15 50.34 150.96 50.04 150.88 49.53C149.73 42.06 147.36 34.9701 144.26 28.1101C141.79 22.6301 138.89 17.39 135.18 12.63C135.09 12.51 135.03 12.38 134.84 12.07C135.51 12.24 135.94 12.53 136.37 12.77L136.36 12.78ZM112.29 4.37005C118.07 5.36005 123.68 6.95005 129.09 9.22005C129.66 9.46005 130.15 9.71005 130.48 10.33C130.81 10.96 131.4 11.46 131.87 12.01C136.53 17.57 140.01 23.8401 142.9 30.4501C145.21 35.7101 146.93 41.1701 148.19 46.7701C148.32 47.3601 148.41 47.9601 148.57 48.8301C147.58 48.3301 146.83 47.9601 146.1 47.5601C142.51 45.6301 138.79 43.97 135.03 42.39C134.53 42.18 134.1 41.9901 133.92 41.3601C132.2 35.5601 129.45 30.24 126.26 25.14C121.85 18.1 117.25 11.2 111.85 4.87005C111.73 4.73005 111.57 4.61005 111.6 4.28005C111.83 4.30005 112.07 4.32005 112.31 4.36005L112.29 4.37005ZM91.02 2.34005C96.21 2.45005 101.39 2.70005 106.53 3.45005C107.17 3.54005 107.68 3.77005 108.14 4.22005C109.58 5.61005 110.9 7.11005 112.13 8.69005C117.81 15.94 122.96 23.54 127.42 31.6C128.91 34.3001 130.12 37.13 131.18 40.03C131.26 40.24 131.32 40.46 131.42 40.76C130.91 40.86 130.61 40.6401 130.3 40.5201C125.5 38.6501 120.66 36.8701 115.74 35.3301C115.36 35.2101 115.06 35.0501 114.88 34.6501C113.69 32.0901 112.13 29.7601 110.54 27.4401C105.5 20.0701 99.93 13.1 94.05 6.39005C92.87 5.04005 91.58 3.79005 90.35 2.50005C90.55 2.27005 90.79 2.35005 91.01 2.35005L91.02 2.34005ZM71.73 3.72005C76.44 2.91005 81.19 2.53005 85.96 2.37005C86.66 2.35005 87.11 2.54005 87.64 3.05005C95.99 10.99 102.77 20.21 109.36 29.59C110.22 30.82 110.97 32.12 111.76 33.39C111.87 33.57 112.09 33.74 111.91 34.07C110.2 33.59 108.47 33.13 106.76 32.62C102.41 31.34 98.02 30.17 93.6 29.17C93.02 29.04 92.71 28.7901 92.4 28.2701C90.55 25.12 88.44 22.13 86.18 19.26C82.32 14.36 78.07 9.82005 73.26 5.82005C72.5 5.18005 71.68 4.61005 70.89 4.00005C71.11 3.67005 71.45 3.74005 71.74 3.69005L71.73 3.72005ZM52.62 8.59005C57.18 7.05005 61.83 5.83005 66.5 4.70005C67.25 4.52005 67.81 4.70005 68.42 5.08005C72.26 7.50005 75.46 10.64 78.58 13.89C82.48 17.95 85.94 22.35 89.03 27.05C89.22 27.34 89.41 27.63 89.59 27.92C89.63 27.98 89.63 28.06 89.68 28.3C87.38 27.85 85.17 27.39 82.94 26.99C79.31 26.35 75.66 25.82 72 25.39C71.25 25.3 70.81 25 70.35 24.38C67.63 20.67 64.31 17.53 60.67 14.73C58.05 12.71 55.28 10.91 52.38 9.31005C52.22 9.22005 52.07 9.13005 51.92 9.03005C52.07 8.68005 52.36 8.67005 52.6 8.59005H52.62ZM35.36 15.97C39.42 13.85 43.59 11.99 47.85 10.3C48.46 10.06 48.99 10.01 49.6 10.32C56.34 13.76 62.31 18.2101 67.27 23.9501C67.46 24.1701 67.74 24.36 67.74 24.84C63.65 24.35 59.6 23.96 55.54 23.73C52.59 23.56 49.63 23.5101 46.68 23.6201C45.98 23.6501 45.47 23.44 44.91 23C41.98 20.69 38.96 18.51 35.61 16.84C35.37 16.72 35.15 16.58 34.94 16.47C34.9 16.1 35.18 16.06 35.37 15.97H35.36ZM19.64 26.34C19.55 26.46 19.44 26.48 19.31 26.4C18.95 26.63 18.55 26.61 17.96 26.63C18.39 26.2 18.67 25.92 19.09 25.83C19.13 25.69 19.23 25.63 19.37 25.65C23.33 22.93 27.46 20.4801 31.58 18.0201C31.94 17.8101 32.25 17.74 32.65 17.91C35.97 19.31 38.96 21.24 41.79 23.42C41.84 23.46 41.84 23.56 41.87 23.63C41.67 23.77 41.44 23.74 41.21 23.75C34.48 23.99 27.81 24.75 21.22 26.09C20.69 26.2 20.16 26.26 19.63 26.34H19.64ZM31.5 33.17C29.42 31.8 27.33 30.43 25.05 29.39C24.26 29.03 23.47 28.68 22.42 28.22C28.64 26.87 34.7 26.3 40.82 26.16C38.28 28.75 35.72 31.22 32.71 33.18C32.25 33.48 31.95 33.48 31.49 33.18L31.5 33.17ZM45.99 42.8601C45.66 43.0901 45.38 43.11 45.06 42.85C41.69 40.11 38.04 37.7501 34.51 35.2201C34.42 35.1601 34.35 35.0601 34.26 34.9701C34.34 34.8701 34.39 34.7601 34.47 34.7001C37.93 32.3601 40.92 29.5 43.78 26.48C44.27 25.96 44.81 25.91 45.44 25.89C52.33 25.64 59.18 26.13 66.01 26.93C66.45 26.98 66.92 26.94 67.44 27.23C66.92 27.67 66.46 28.0601 66 28.4501C60.41 33.1101 54.4 37.1901 48.39 41.2701C47.59 41.8101 46.78 42.3201 45.98 42.8601H45.99ZM58.73 52.6C55.14 50.36 51.62 48.0201 48.31 45.3801C48.04 45.1701 47.74 45 47.57 44.67C47.76 44.3 48.15 44.17 48.46 43.96C53.6 40.51 58.73 37.04 63.63 33.25C65.82 31.56 68.03 29.89 69.99 27.92C70.28 27.63 70.58 27.4801 71.01 27.5301C76.92 28.2901 82.82 29.1201 88.63 30.4401C88.7 30.4601 88.75 30.53 88.81 30.58C88.79 30.79 88.62 30.9 88.48 31.01C81.05 37.47 73.56 43.8501 65.46 49.4701C63.94 50.5201 62.37 51.5001 60.87 52.5601C60.12 53.0901 59.58 53.12 58.74 52.59L58.73 52.6ZM74.98 62.01C70.6 59.77 66.34 57.31 62.12 54.69C62.3 54.21 62.66 54.1 62.93 53.92C71.38 48.46 79.09 42.0501 86.73 35.5401C88.25 34.2401 89.8 32.9801 91.18 31.5301C91.61 31.0801 92.03 31.15 92.53 31.26C95.79 31.99 99.03 32.8101 102.26 33.7001C104.74 34.3801 107.22 35.1001 109.69 35.8101C110.16 35.9501 110.66 36.03 111.07 36.35C110.9 36.79 110.51 37 110.2 37.28C103.86 42.94 97.21 48.2201 90.39 53.2901C86.57 56.1401 82.8 59.0501 78.84 61.7201C76.96 62.9901 76.95 63.02 74.96 62.01H74.98ZM93.1 69.2C92.55 69.46 92.1 69.47 91.58 69.27C90.22 68.75 88.84 68.25 87.48 67.72C84.79 66.67 82.17 65.48 79.47 64.25C79.71 63.76 80.09 63.63 80.4 63.41C91.18 55.74 101.75 47.8 111.67 39.03C112.02 38.72 112.35 38.41 112.69 38.09C114.04 36.85 113.45 36.96 115.16 37.5C120.37 39.14 125.48 41.0601 130.57 43.0401C130.71 43.0901 130.83 43.18 130.97 43.25C130.82 43.76 130.38 43.98 130.05 44.28C126.25 47.6 122.25 50.6401 118.09 53.4901C110.99 58.3601 103.76 63.05 96.35 67.45C95.29 68.08 94.22 68.67 93.11 69.2H93.1ZM115.78 75.1C109.11 74.13 102.56 72.66 96.11 70.71C96 70.68 95.9 70.62 95.66 70.51C98.3 68.91 100.8 67.41 103.28 65.88C109.96 61.76 116.49 57.43 122.88 52.87C126.38 50.37 129.77 47.7 132.87 44.71C133.32 44.27 133.68 44.28 134.19 44.5C137.71 45.95 141.17 47.55 144.54 49.32C145.62 49.89 146.76 50.3701 147.75 51.0801C147.75 51.5001 147.43 51.63 147.21 51.82C140.71 57.4 134.11 62.87 127.32 68.1C124.09 70.59 120.54 72.62 117.09 74.78C116.69 75.03 116.3 75.18 115.79 75.11L115.78 75.1ZM137.45 76.8C131.95 76.71 126.47 76.23 120.99 75.76C120.74 75.74 120.44 75.79 120.26 75.51C120.46 75.15 120.84 75.02 121.16 74.83C125.4 72.24 129.42 69.35 133.28 66.21C138.64 61.83 144.02 57.48 149.25 52.94C150 52.29 150.02 52.28 150.84 52.76C154.53 54.91 158.13 57.2 161.59 59.71C162.32 60.24 162.31 60.25 161.63 60.84C157.73 64.16 153.56 67.13 149.4 70.1C146.26 72.33 143.02 74.4 139.64 76.25C138.94 76.63 138.24 76.81 137.44 76.8H137.45ZM143.91 76.6C144.04 76.24 144.3 76.16 144.5 76.03C151.03 71.81 157.35 67.3001 163.32 62.3101C164.15 61.6101 164.16 61.6201 165.02 62.2901C167.68 64.3801 170.25 66.57 172.64 68.98C173.02 69.36 173.39 69.74 173.81 70.44C163.97 73.46 154.24 76.14 143.92 76.6H143.91ZM177.38 70.87C176.66 70.46 176.41 69.7 175.9 69.15C175.76 69.12 175.68 69.04 175.68 68.88C175.61 68.87 175.58 68.83 175.56 68.76C175.23 68.58 174.99 68.33 174.86 67.98C172.04 65.16 169.05 62.53 165.88 60.1C165.48 59.79 165.29 59.46 165.31 58.94C165.51 53.39 164.38 48.0301 163.02 42.7001C162.39 40.2401 161.51 37.87 160.8 35.44C160.68 35.37 160.65 35.2701 160.7 35.1301C160.58 35.0501 160.55 34.9501 160.6 34.8301V34.8101C160.47 34.7501 160.44 34.65 160.5 34.53V34.5C160.44 34.41 160.39 34.3201 160.33 34.2201C160.16 34.0101 160.09 33.77 160.15 33.44C160.53 33.58 160.73 33.8401 160.83 34.2001V34.2201C160.96 34.2501 161.02 34.34 161 34.48C161.19 34.55 161.29 34.69 161.3 34.89C161.5 34.95 161.58 35.1001 161.6 35.2901C163.48 37.7301 165.02 40.3901 166.44 43.1101C168.04 46.1801 169.57 49.27 171.04 52.41C172.69 55.94 173.86 59.6401 174.97 63.3601C175.3 64.4701 175.42 65.62 175.4 66.78C175.4 67.16 175.43 67.54 175.45 67.93C175.67 68.2 175.89 68.47 176.11 68.74C176.19 68.74 176.25 68.78 176.29 68.85C176.76 69.01 177.2 69.22 177.53 69.61C180.21 70.98 182.6 72.79 184.91 74.7C190.05 78.97 193.96 84.27 197.51 89.87C197.55 89.93 197.55 90.01 197.57 90.13C196.75 90.25 196.2 90.09 195.7 89.28C191.06 81.69 185.15 75.34 177.38 70.87ZM91.83 132.87C98.59 123.15 106.55 114.53 115.64 106.97C121.01 102.5 126.78 98.62 133.14 95.67C137.71 93.55 142.5 92.16 147.44 91.27C160.85 88.83 174.28 88.93 187.71 91.11C192.76 91.93 197.81 92.71 202.92 92.99C207.51 93.24 212.06 92.79 216.61 92.32C216.98 92.28 217.36 92.1 217.79 92.32C217.58 93.36 217.35 94.39 217.16 95.44C216.93 96.73 216.79 98.03 216.7 99.33C216.65 100.14 216.63 100.15 215.81 100.1C213.31 99.96 210.84 99.6 208.36 99.31C204.96 98.91 201.57 98.46 198.13 98.7C193.97 98.99 190.18 100.28 186.73 102.67C182.47 105.63 179.5 109.61 177.15 114.14C174.58 119.11 173.48 124.47 172.72 129.95C171.57 138.34 171.17 146.79 170.61 155.23C170.25 160.6 170.1 165.99 169.25 171.31C168.78 174.27 168.33 177.24 167.15 180.04C167.03 180.32 166.91 180.61 166.78 180.89C166.75 180.95 166.68 181 166.56 181.12C165.75 180.58 165.15 179.79 164.43 179.14C164.1 178.85 164.3 178.48 164.43 178.17C165.57 175.2 166.06 172.08 166.57 168.97C167.02 166.24 167.27 163.48 167.66 160.74C169.11 150.48 169.55 140.14 170.03 129.81C170.28 124.49 171.29 119.35 173.15 114.38C174.64 110.4 176.9 106.87 179.95 103.91C182.97 100.97 186.63 99.01 190.49 97.4C191.13 97.13 191.79 96.92 192.44 96.68C192.81 96.55 193.15 96.37 193.37 96.04C193.78 95.41 193.42 94.57 192.67 94.44C192.36 94.39 192.04 94.41 191.76 94.54C190.79 95.01 189.82 94.82 188.83 94.65C184.02 93.85 179.21 93.02 174.34 92.59C168.3 92.06 162.28 92.39 156.28 93.18C149.2 94.12 142.26 95.65 135.63 98.38C129.19 101.03 123.32 104.67 117.77 108.86C109.25 115.3 102.13 123.07 96.13 131.86C93.03 136.4 90.08 141.05 87.86 146.12C87.79 146.28 87.76 146.49 87.46 146.59C87.03 145.96 86.59 145.3 86.13 144.65C85.87 144.29 86.09 144 86.2 143.68C87.52 139.78 89.48 136.23 91.82 132.86L91.83 132.87ZM167.8 128.65C167.5 135.07 166.98 141.47 166.65 147.88C166.28 155 165.1 162.02 164.18 169.07C163.89 171.31 163.47 173.55 162.79 175.73C162.63 176.24 162.45 176.74 162.21 177.41C160.44 176.22 158.73 175.26 156.94 174.45C150.84 171.72 144.44 170.78 137.8 171.22C132.87 171.55 128.19 172.86 123.62 174.66C122.19 175.23 120.8 175.88 119.41 176.55C118.47 177.01 117.73 177.78 116.78 178.21C116.43 178.37 116.15 178.66 115.74 178.7C115.54 178.35 115.6 177.96 115.56 177.58C114.76 171.34 112.84 165.51 109.25 160.3C105.62 155.02 100.74 151.27 94.89 148.74C93.33 148.07 91.65 147.78 89.94 147.38C90.5 146.13 90.93 144.86 91.59 143.72C93.47 140.46 95.39 137.21 97.43 134.04C99.61 130.67 102.11 127.56 104.69 124.5C112.63 115.09 122.03 107.52 133.09 102.05C137.56 99.84 142.27 98.28 147.12 97.18C154.99 95.39 162.95 94.4 171.03 94.7C175.61 94.87 180.14 95.54 184.65 96.3C185.18 96.39 185.7 96.48 186.27 96.58C186.07 96.98 185.71 97.04 185.44 97.2C184.23 97.94 182.98 98.64 181.79 99.42C178 101.9 175.18 105.28 173.02 109.2C169.68 115.24 168.11 121.8 167.79 128.64L167.8 128.65ZM43.72 236.37C43.36 236.22 42.94 236.37 42.59 236.14C36.09 235.37 29.93 233.52 24.37 230.04C19.86 227.22 15.76 223.85 12.29 219.78C9.40001 216.39 7.54001 212.44 5.95001 208.33C1.50001 196.84 1.30001 185.13 4.41001 173.33C6.66001 164.8 11.07 157.42 16.93 150.87C19.91 147.53 23.3 144.64 26.79 141.85C27.51 141.28 28.33 140.82 29.13 140.38C35.72 136.76 42.68 134.34 50.23 133.88C58.84 133.36 67.08 134.85 74.8 138.8C77.68 140.27 80.48 141.87 82.77 144.23C83.41 144.89 84.03 145.57 84.54 146.35C84.6 146.38 84.7 146.4 84.73 146.45C84.82 146.61 85.13 146.81 84.83 146.96C84.62 147.06 84.44 146.83 84.41 146.57C81.2 144.24 77.87 142.11 74.37 140.23C70.51 138.16 66.43 136.68 62.17 135.74C60.25 135.32 58.28 135.46 56.35 136.03C54.46 136.59 53.1 137.72 52.21 139.45C52.04 139.79 51.84 140.13 51.69 140.48C50.65 142.98 48.86 144.87 46.67 146.37C43.17 148.76 39.3 149.31 35.21 148.43C33.75 148.12 32.32 147.63 30.87 147.25C29.25 146.83 27.67 147.01 26.14 147.7C23.43 148.92 21.15 150.72 19.19 152.93C15.52 157.06 12.51 161.64 9.99001 166.56C6.85001 172.69 5.36001 179.24 4.70001 186.03C4.49001 188.18 4.62001 190.33 4.88001 192.47C5.67001 199.03 7.07001 205.43 9.80001 211.5C12.34 217.12 16.2 221.59 21.22 225.11C23.86 226.96 26.52 228.8 29.36 230.35C32.48 232.06 35.84 233.18 39.13 234.49C40.1 234.87 41.07 235.24 42.04 235.61C42.55 235.53 42.96 235.84 43.42 235.96C43.85 235.87 44.2 236.07 44.61 236.33C44.27 236.54 43.99 236.51 43.71 236.35L43.72 236.37ZM102.95 161.01C99.62 157.23 95.55 154.89 90.58 153.97C87.21 153.35 83.79 153.2 80.4 152.75C76.97 152.3 73.51 152.18 70.09 151.67C68.26 151.4 66.45 151.04 64.77 150.23C63.62 149.67 62.65 148.9 61.84 147.63C63.54 147.78 65.02 148 66.49 148.34C69.5 149.04 72.57 149.14 75.65 149.12C77.11 149.12 78.57 149.05 80.03 149.01C84.39 148.9 88.71 149.26 92.9 150.52C96 151.45 98.68 153.2 101.22 155.15C106.76 159.42 110.14 165.12 112.04 171.77C112.7 174.07 113.22 176.39 113.33 178.79C113.41 180.42 113.39 180.44 111.77 181.28C111.54 179 111.06 176.79 110.42 174.63C108.9 169.55 106.47 164.98 102.95 160.99V161.01ZM176.04 267.89C175.71 268.09 175.38 268.29 175.05 268.5C174.82 268.66 174.63 268.87 174.33 268.92C174.01 269.14 173.71 269.4 173.32 269.5C173.22 269.55 173.11 269.61 173.01 269.66C172.99 269.73 172.94 269.77 172.86 269.77C172.79 269.83 172.7 269.87 172.61 269.91C172.54 270.03 172.43 270.08 172.3 270.09C172.23 270.2 172.14 270.26 172.01 270.23C171.98 270.3 171.94 270.33 171.87 270.33C171.83 270.46 171.73 270.5 171.61 270.48C171.56 270.61 171.46 270.66 171.33 270.64C171.24 270.81 171.09 270.89 170.9 270.89H170.89C170.83 271.03 170.73 271.07 170.6 271.05C170.52 271.15 170.43 271.2 170.3 271.17C170.24 271.29 170.14 271.35 170.01 271.32C169.72 271.6 169.39 271.78 168.98 271.83C168.92 271.95 168.82 272 168.68 271.97C168.61 272.09 168.52 272.13 168.39 272.11C168.32 272.23 168.23 272.28 168.09 272.25C168.02 272.36 167.93 272.41 167.79 272.39C167.38 272.69 166.94 272.9 166.44 272.99C165.62 273.5 164.71 273.82 163.81 274.15C154.65 277.48 145.27 278.79 135.57 277.34C128.9 276.35 122.66 274.19 116.86 270.77C112.05 267.94 107.82 264.41 104.13 260.23C103.31 259.31 102.57 258.32 101.94 257.27C98.79 252.06 96.01 246.67 93.89 240.94C91.79 235.25 91.19 229.36 91.3 223.35C91.44 215.37 93.6 207.95 97.35 200.96C98.97 197.94 100.63 194.95 102.91 192.36C107.22 187.45 112.33 183.55 117.92 180.23C122.32 177.62 126.93 175.54 131.94 174.44C139.85 172.7 147.61 173.16 155.15 176.21C160.11 178.22 164.3 181.28 167.22 185.84C169.19 188.92 170.84 192.18 172.16 195.6C173.5 199.09 174.54 202.68 175.45 206.29C175.88 208 176.18 209.75 176.09 211.53C176.22 211.69 176.18 211.87 176.13 212.04C176.22 212.34 176.22 212.61 175.92 212.81C175.75 212.62 175.73 212.4 175.78 212.18C175.76 212.01 175.66 211.84 175.75 211.66C174.69 206.88 173.1 202.26 171.39 197.68C170.16 194.37 168.19 191.47 166.34 188.5C163.49 183.89 159.36 180.79 154.64 178.37C152.91 177.48 151.04 177.04 149.15 176.66C145.79 175.98 142.4 175.54 138.96 175.63C134.49 175.75 132.39 177.26 130.81 181.44C130.39 182.55 130.09 183.71 129.63 184.81C128.44 187.64 126.22 189.2 123.35 189.91C121.51 190.37 119.63 190.43 117.74 190.17C116.68 190.02 115.61 189.91 114.54 189.75C113.52 189.6 112.56 189.75 111.6 190.08C109.75 190.73 108.16 191.77 106.71 193.06C103.6 195.85 101.19 199.16 99.42 202.92C97.68 206.61 96.12 210.39 95.03 214.33C93.88 218.49 93.71 222.76 93.9 227.03C94.14 232.47 94.92 237.84 96.89 242.95C99.19 248.91 102.56 254.2 107.1 258.71C110.05 261.63 113.02 264.53 116.38 266.99C119.89 269.54 123.71 271.49 127.83 272.86C130.49 273.74 133.12 274.72 135.9 275.21C140.45 276.02 145.01 275.88 149.58 275.56C154.9 275.18 160.09 274.15 165.15 272.42C165.4 272.33 165.67 272.29 165.92 272.22C166.01 272.1 166.12 272.06 166.27 272.1C166.35 271.99 166.45 271.95 166.58 271.99C166.65 271.88 166.76 271.84 166.89 271.88C166.97 271.77 167.07 271.74 167.2 271.77C167.27 271.66 167.38 271.62 167.51 271.66C167.59 271.55 167.69 271.51 167.82 271.55C167.89 271.44 168 271.4 168.13 271.43C168.2 271.32 168.3 271.28 168.43 271.31C168.5 271.2 168.6 271.16 168.73 271.19C168.8 271.08 168.9 271.04 169.04 271.07C169.11 270.96 169.21 270.92 169.34 270.95C169.41 270.84 169.51 270.8 169.64 270.83C169.71 270.72 169.81 270.67 169.94 270.71C170.01 270.59 170.12 270.55 170.25 270.59L170.23 270.57C170.32 270.39 170.47 270.35 170.65 270.37L170.69 270.35C170.74 270.23 170.83 270.2 170.95 270.24H170.98C171.04 270.1 171.13 270.07 171.26 270.11H171.28C171.34 269.98 171.44 269.94 171.57 269.98C171.63 269.85 171.73 269.81 171.87 269.84C171.93 269.71 172.04 269.67 172.18 269.66C172.38 269.45 172.64 269.37 172.91 269.31C173 269.26 173.09 269.21 173.18 269.16C173.47 268.88 173.85 268.78 174.19 268.61C174.43 268.47 174.67 268.33 174.91 268.19L175.9 267.62C176.09 267.43 176.31 267.31 176.66 267.31C176.59 267.7 176.31 267.81 176.02 267.91L176.04 267.89ZM200.8 229.6C200.52 229.59 200.75 229.43 200.74 229.33C200.74 229.33 200.74 229.33 200.74 229.32C200.63 228.32 200.81 227.32 200.83 226.32C200.97 225.56 200.78 224.81 200.83 224.05C200.83 223.88 200.83 223.7 200.83 223.53C200.81 223.19 200.79 222.85 200.77 222.5C200.76 222.33 200.75 222.16 200.74 221.99C200.73 221.82 200.72 221.65 200.71 221.47C200.64 221.14 200.52 220.81 200.61 220.46C200.51 220.37 200.49 220.26 200.55 220.14C200.46 220.06 200.44 219.97 200.49 219.86C200.4 219.52 200.27 219.18 200.35 218.81C200.24 218.72 200.21 218.62 200.28 218.49C200.14 218.34 200.11 218.18 200.17 218C200.06 217.92 200.04 217.81 200.09 217.68C199.98 217.6 199.95 217.49 200.01 217.37C199.82 217.12 199.74 216.86 199.79 216.55C199.55 215.82 199.32 215.09 199.08 214.36C197.55 209.83 195.26 205.72 192.23 202.02C189.55 198.75 186.78 195.56 183.4 192.96C180.61 190.81 177.61 189.05 174.25 187.91C173.01 187.49 171.81 186.97 170.6 186.49C170.14 186.31 170.14 186.3 169.68 185.29C170.6 185.3 171.42 185.59 172.24 185.84C180.46 188.27 187.14 192.98 192.59 199.54C195.59 203.16 198.07 207.06 199.46 211.58C199.97 213.23 200.41 214.91 200.56 216.64C200.68 216.79 200.72 216.95 200.63 217.13C200.8 217.39 200.85 217.66 200.75 217.96C200.88 218.12 200.89 218.29 200.8 218.47C200.97 218.72 200.94 219.01 200.92 219.29C201.02 219.46 201.05 219.63 200.96 219.81C201.04 219.9 201.07 220 200.99 220.11C201.03 220.18 201.03 220.25 200.99 220.32C201.14 220.65 201.11 220.99 201.06 221.34C201.16 221.5 201.15 221.68 201.1 221.85C201.19 222.02 201.18 222.19 201.13 222.37C201.24 222.72 201.21 223.07 201.15 223.42C201.23 223.59 201.22 223.76 201.18 223.94C201.3 224.71 201.19 225.47 201.13 226.23C201.2 227.29 201.11 228.33 200.75 229.34C200.75 229.34 200.75 229.34 200.75 229.35C200.82 229.44 200.86 229.62 200.81 229.62L200.8 229.6Z" fill="#070707"/>
<path d="M86.1295 144.65C86.5895 145.29 87.0295 145.95 87.4595 146.59C87.7595 146.49 87.7895 146.28 87.8595 146.12C90.0795 141.06 93.0295 136.4 96.1295 131.86C102.13 123.07 109.25 115.31 117.77 108.86C123.32 104.66 129.19 101.03 135.63 98.38C142.26 95.65 149.19 94.12 156.28 93.18C162.28 92.39 168.29 92.06 174.34 92.59C179.21 93.02 184.02 93.85 188.83 94.65C189.82 94.81 190.8 95.01 191.76 94.54C192.04 94.4 192.36 94.39 192.67 94.44C193.42 94.57 193.78 95.41 193.37 96.04C193.15 96.38 192.8 96.55 192.44 96.68C191.79 96.92 191.13 97.13 190.49 97.4C186.63 99.01 182.97 100.98 179.95 103.91C176.9 106.87 174.64 110.4 173.15 114.38C171.3 119.35 170.28 124.49 170.03 129.81C169.55 140.14 169.11 150.48 167.66 160.74C167.27 163.48 167.03 166.24 166.57 168.97C166.06 172.08 165.56 175.2 164.43 178.17C164.31 178.48 164.11 178.84 164.43 179.14C165.16 179.79 165.76 180.58 166.56 181.12C166.68 181 166.75 180.95 166.78 180.89C166.91 180.61 167.03 180.33 167.15 180.04C168.33 177.25 168.78 174.28 169.25 171.31C170.1 165.98 170.25 160.6 170.61 155.23C171.17 146.79 171.57 138.34 172.72 129.95C173.47 124.47 174.58 119.11 177.15 114.14C179.5 109.61 182.46 105.62 186.73 102.67C190.18 100.28 193.96 98.99 198.13 98.7C201.57 98.46 204.96 98.91 208.36 99.31C210.84 99.6 213.31 99.96 215.81 100.1C216.62 100.15 216.64 100.14 216.7 99.33C216.79 98.02 216.93 96.72 217.16 95.44C217.34 94.39 217.58 93.36 217.79 92.32C217.36 92.09 216.98 92.27 216.61 92.32C212.06 92.79 207.51 93.24 202.92 92.99C197.81 92.71 192.76 91.93 187.71 91.11C174.28 88.93 160.85 88.83 147.44 91.27C142.5 92.17 137.7 93.55 133.14 95.67C126.78 98.62 121.01 102.5 115.64 106.97C106.54 114.53 98.5895 123.15 91.8295 132.87C89.4895 136.24 87.5295 139.8 86.2095 143.69C86.0995 144.01 85.8795 144.3 86.1395 144.66L86.1295 144.65ZM210.16 96.88C210.37 96.8 210.61 96.77 210.83 96.77C212.29 96.8 213.74 96.85 215.2 96.9C215.35 96.9 215.51 96.92 215.65 96.96C216.06 97.07 216.32 97.32 216.31 97.78C216.31 98.25 215.97 98.45 215.58 98.53C215.32 98.58 215.05 98.56 214.78 98.56C213.52 98.52 212.25 98.48 210.99 98.44C210.72 98.44 210.46 98.4 210.31 98.39C209.83 98.22 209.63 97.97 209.63 97.57C209.63 97.21 209.86 97 210.16 96.89V96.88ZM204.74 96.29C205.49 96.09 206.25 96.11 206.98 96.24C207.35 96.42 207.59 96.64 207.57 97.04C207.56 97.45 207.3 97.7 206.95 97.76C206.23 97.88 205.5 97.9 204.78 97.78C204.41 97.72 204.17 97.45 204.17 97.05C204.17 96.67 204.37 96.37 204.74 96.28V96.29Z" fill="#FF3A1F"/>
<path d="M170 271.3C170.06 271.19 170.16 271.14 170.29 271.15L170.48 270.67C170.4 270.63 170.32 270.59 170.24 270.55L170.26 270.57C170.19 270.69 170.08 270.73 169.95 270.7C169.88 270.81 169.78 270.85 169.65 270.82C169.57 270.93 169.47 270.97 169.34 270.94C169.26 271.05 169.16 271.09 169.04 271.06C168.96 271.17 168.86 271.21 168.74 271.18C168.66 271.29 168.56 271.33 168.44 271.3C168.36 271.41 168.26 271.45 168.14 271.42C168.06 271.53 167.96 271.57 167.83 271.54C167.75 271.65 167.65 271.68 167.52 271.65C167.44 271.76 167.34 271.8 167.21 271.76C167.13 271.87 167.03 271.91 166.9 271.87C166.83 271.99 166.72 272.02 166.59 271.99C166.52 272.11 166.42 272.14 166.29 272.1C166.27 272.13 166.25 272.16 166.22 272.18C166.14 272.24 166.05 272.26 165.94 272.22C165.68 272.29 165.42 272.33 165.17 272.42C160.12 274.15 154.92 275.19 149.6 275.56C145.03 275.88 140.46 276.02 135.92 275.21C133.14 274.72 130.51 273.74 127.85 272.86C123.72 271.49 119.91 269.55 116.4 266.99C113.03 264.54 110.06 261.64 107.12 258.71C102.58 254.2 99.1999 248.91 96.9099 242.95C94.9399 237.83 94.1599 232.47 93.9199 227.03C93.7299 222.75 93.8999 218.48 95.0499 214.33C96.1399 210.39 97.7099 206.62 99.4399 202.92C101.21 199.16 103.62 195.84 106.73 193.06C108.18 191.76 109.77 190.72 111.62 190.08C112.58 189.74 113.55 189.6 114.56 189.75C115.62 189.91 116.69 190.02 117.76 190.17C119.65 190.44 121.53 190.37 123.37 189.91C126.24 189.2 128.46 187.64 129.65 184.81C130.11 183.71 130.41 182.55 130.83 181.44C132.41 177.26 134.51 175.75 138.98 175.63C142.42 175.54 145.81 175.99 149.17 176.66C151.06 177.04 152.93 177.48 154.66 178.37C159.38 180.8 163.5 183.9 166.36 188.5C168.2 191.48 170.17 194.38 171.41 197.68C173.12 202.26 174.71 206.88 175.77 211.66C175.88 211.61 176 211.57 176.11 211.52C176.2 209.74 175.91 207.99 175.47 206.28C174.55 202.66 173.52 199.08 172.18 195.59C170.86 192.17 169.21 188.91 167.24 185.83C164.32 181.27 160.13 178.22 155.17 176.2C147.63 173.14 139.87 172.69 131.96 174.43C126.95 175.53 122.33 177.61 117.94 180.22C112.35 183.54 107.24 187.44 102.93 192.35C100.65 194.95 98.9899 197.94 97.3699 200.95C93.6199 207.95 91.4599 215.37 91.3199 223.34C91.2099 229.35 91.8199 235.24 93.9099 240.93C96.0199 246.66 98.7999 252.05 101.96 257.26C102.6 258.31 103.34 259.3 104.15 260.22C107.84 264.4 112.08 267.93 116.88 270.76C122.68 274.18 128.93 276.34 135.59 277.33C145.29 278.77 154.67 277.46 163.83 274.14C164.73 273.81 165.64 273.49 166.46 272.98C166.78 272.49 167.23 272.31 167.8 272.37C167.83 272.31 167.86 272.27 167.91 272.25C167.96 272.22 168.03 272.21 168.1 272.23C168.12 272.19 168.15 272.17 168.18 272.15C168.21 272.12 168.25 272.11 168.29 272.1C168.32 272.1 168.36 272.1 168.39 272.1C168.46 271.99 168.56 271.95 168.69 271.97C168.76 271.86 168.86 271.82 168.99 271.84C169.21 271.42 169.57 271.28 170.02 271.32L170 271.3Z" fill="#FF3A1F"/>
<path d="M110.2 37.2701C110.51 37.0001 110.9 36.7801 111.07 36.3401C110.66 36.0301 110.16 35.9401 109.69 35.8001C107.22 35.0901 104.74 34.3701 102.26 33.6901C99.0401 32.8001 95.8001 31.9801 92.5301 31.2501C92.0301 31.1401 91.6101 31.0701 91.1801 31.5201C89.7901 32.9601 88.2501 34.2301 86.7301 35.5301C79.0901 42.0401 71.3801 48.4501 62.9301 53.9101C62.6501 54.0901 62.2901 54.1901 62.1201 54.6801C66.3501 57.3001 70.6001 59.7601 74.9801 62.0001C76.9701 63.0101 76.9701 62.9801 78.8601 61.7101C82.8101 59.0401 86.5801 56.1301 90.4101 53.2801C97.2201 48.2101 103.87 42.9301 110.22 37.2701H110.2Z" fill="#FF3A1F"/>
<path d="M147.2 51.81C147.41 51.63 147.73 51.49 147.74 51.07C146.75 50.36 145.61 49.88 144.53 49.31C141.16 47.54 137.7 45.94 134.18 44.49C133.67 44.28 133.31 44.27 132.86 44.7C129.76 47.7 126.37 50.36 122.87 52.86C116.49 57.42 109.95 61.75 103.27 65.87C100.79 67.4 98.2904 68.9 95.6504 70.5C95.9004 70.61 96.0004 70.67 96.1004 70.7C102.55 72.65 109.1 74.12 115.77 75.09C116.28 75.16 116.67 75.01 117.07 74.76C120.53 72.6 124.07 70.56 127.3 68.08C134.09 62.85 140.69 57.38 147.19 51.8L147.2 51.81Z" fill="#FF3A1F"/>
<path d="M130.03 44.27C130.37 43.98 130.8 43.75 130.95 43.24C130.81 43.17 130.69 43.08 130.55 43.03C125.46 41.05 120.35 39.13 115.14 37.49C113.43 36.95 114.02 36.84 112.67 38.08C112.33 38.39 112 38.71 111.65 39.02C101.73 47.79 91.1602 55.73 80.3802 63.4C80.0802 63.62 79.7002 63.75 79.4502 64.24C82.1502 65.48 84.7702 66.66 87.4602 67.71C88.8202 68.24 90.1902 68.74 91.5602 69.26C92.0802 69.46 92.5302 69.45 93.0802 69.19C94.1902 68.66 95.2702 68.06 96.3202 67.44C103.73 63.04 110.95 58.36 118.06 53.48C122.22 50.63 126.22 47.58 130.02 44.27H130.03Z" fill="#FF3A1F"/>
<path d="M42.0403 235.62C41.0703 235.25 40.1003 234.88 39.1303 234.5C35.8403 233.2 32.4903 232.07 29.3603 230.36C26.5203 228.81 23.8703 226.97 21.2203 225.12C16.2003 221.6 12.3403 217.13 9.80034 211.51C7.06034 205.45 5.66034 199.05 4.88034 192.48C4.62034 190.34 4.49034 188.19 4.70034 186.04C5.37034 179.25 6.86034 172.7 9.99034 166.57C12.5103 161.65 15.5203 157.07 19.1903 152.94C21.1503 150.73 23.4303 148.93 26.1403 147.71C27.6703 147.02 29.2503 146.85 30.8703 147.26C32.3203 147.63 33.7503 148.12 35.2103 148.44C39.3003 149.32 43.1703 148.77 46.6703 146.38C48.8603 144.88 50.6503 143 51.6903 140.49C51.8403 140.14 52.0303 139.8 52.2103 139.46C53.1003 137.72 54.4603 136.6 56.3503 136.04C58.2803 135.47 60.2503 135.33 62.1703 135.75C66.4303 136.68 70.5103 138.16 74.3703 140.24C77.8603 142.12 81.2003 144.24 84.4103 146.58C84.4503 146.5 84.5003 146.43 84.5403 146.35C84.0303 145.57 83.4103 144.89 82.7703 144.23C80.4803 141.88 77.6703 140.27 74.8003 138.8C67.0803 134.85 58.8403 133.36 50.2303 133.88C42.6803 134.34 35.7103 136.75 29.1303 140.38C28.3203 140.82 27.5003 141.28 26.7903 141.85C23.3103 144.63 19.9203 147.53 16.9303 150.87C11.0703 157.42 6.66034 164.8 4.41034 173.33C1.30034 185.14 1.50034 196.84 5.95034 208.33C7.54034 212.44 9.40034 216.39 12.2903 219.78C15.7603 223.85 19.8703 227.22 24.3703 230.04C29.9303 233.52 36.0903 235.37 42.5903 236.14C42.5303 235.84 42.1803 235.85 42.0403 235.63V235.62Z" fill="#FF3A1F"/>
<path d="M111.82 4.88005C117.23 11.21 121.83 18.11 126.23 25.15C129.42 30.25 132.17 35.57 133.89 41.37C134.08 42 134.5 42.1901 135 42.4001C138.76 43.9701 142.48 45.64 146.07 47.57C146.81 47.97 147.56 48.34 148.54 48.84C148.38 47.98 148.29 47.38 148.16 46.78C146.9 41.18 145.17 35.72 142.87 30.46C139.97 23.85 136.5 17.58 131.84 12.02C131.37 11.46 130.79 10.97 130.45 10.34C130.12 9.72005 129.63 9.47005 129.06 9.23005C123.65 6.96005 118.04 5.37005 112.26 4.38005C112.02 4.34005 111.78 4.33005 111.55 4.30005C111.51 4.63005 111.68 4.75005 111.8 4.89005L111.82 4.88005Z" fill="#FF3A1F"/>
<path d="M110.54 27.43C112.13 29.75 113.69 32.08 114.88 34.64C115.07 35.04 115.36 35.2 115.74 35.32C120.66 36.86 125.5 38.64 130.3 40.51C130.61 40.63 130.91 40.85 131.42 40.75C131.32 40.45 131.26 40.24 131.18 40.02C130.12 37.13 128.92 34.29 127.42 31.59C122.96 23.53 117.81 15.93 112.13 8.67999C110.9 7.10999 109.58 5.59999 108.14 4.20999C107.68 3.75999 107.17 3.52999 106.53 3.43999C101.38 2.69999 96.2103 2.44999 91.0203 2.32999C90.8003 2.32999 90.5504 2.24999 90.3604 2.47999C91.6004 3.76999 92.8803 5.01999 94.0603 6.36999C99.9403 13.08 105.5 20.05 110.55 27.42L110.54 27.43Z" fill="#FF3A1F"/>
<path d="M88.4696 31.01C88.5996 30.89 88.7796 30.79 88.7996 30.58C88.7396 30.53 88.6896 30.46 88.6196 30.44C82.8096 29.11 76.9096 28.28 70.9996 27.53C70.5696 27.47 70.2696 27.63 69.9796 27.92C68.0196 29.89 65.8096 31.56 63.6196 33.25C58.7196 37.04 53.5896 40.51 48.4496 43.96C48.1396 44.17 47.7496 44.3 47.5596 44.67C47.7296 44.99 48.0396 45.16 48.2996 45.38C51.6096 48.02 55.1296 50.36 58.7196 52.6C59.5596 53.13 60.0996 53.1 60.8496 52.57C62.3596 51.5 63.9296 50.53 65.4396 49.48C73.5396 43.86 81.0296 37.48 88.4596 31.02L88.4696 31.01Z" fill="#FF3A1F"/>
<path d="M86.1604 19.28C88.4204 22.15 90.5303 25.14 92.3803 28.29C92.6803 28.81 93.0004 29.06 93.5804 29.19C98.0104 30.19 102.39 31.35 106.74 32.64C108.46 33.14 110.19 33.61 111.89 34.09C112.07 33.76 111.85 33.59 111.74 33.41C110.95 32.13 110.2 30.83 109.34 29.61C102.75 20.23 95.9704 11.01 87.6204 3.07003C87.0904 2.57003 86.6304 2.37003 85.9404 2.39003C81.1704 2.54003 76.4204 2.93003 71.7104 3.74003C71.4304 3.79003 71.0804 3.71003 70.8604 4.05003C71.6504 4.66003 72.4704 5.23003 73.2304 5.87003C78.0404 9.87003 82.2804 14.41 86.1504 19.31L86.1604 19.28Z" fill="#FF3A1F"/>
<path d="M161.63 60.84C162.31 60.26 162.32 60.24 161.59 59.71C158.13 57.2 154.53 54.92 150.84 52.76C150.02 52.28 149.99 52.29 149.25 52.94C144.03 57.48 138.65 61.83 133.28 66.21C129.43 69.35 125.41 72.24 121.16 74.83C120.84 75.03 120.46 75.15 120.26 75.51C120.44 75.79 120.74 75.74 120.99 75.76C126.47 76.23 131.94 76.71 137.45 76.8C138.24 76.81 138.94 76.64 139.65 76.25C143.03 74.4 146.27 72.34 149.41 70.1C153.58 67.13 157.74 64.16 161.64 60.84H161.63Z" fill="#FF3A1F"/>
<path d="M144.25 28.12C147.35 34.98 149.73 42.07 150.87 49.54C150.95 50.05 151.14 50.34 151.59 50.6C154.76 52.41 157.84 54.37 160.86 56.42C161.58 56.91 162.24 57.51 163.09 57.9C163.21 56.84 163.13 55.85 163.03 54.86C162.6 50.49 161.77 46.19 160.53 41.97C159.2 37.43 157.65 32.96 155.87 28.58C155.73 28.24 155.5 27.99 155.26 27.75C149.57 21.98 143.44 16.77 136.35 12.79C135.91 12.54 135.49 12.26 134.82 12.09C135.01 12.4 135.07 12.54 135.16 12.65C138.87 17.41 141.77 22.65 144.24 28.13L144.25 28.12Z" fill="#FF3A1F"/>
<path d="M60.6802 14.72C64.3102 17.53 67.6302 20.66 70.3602 24.37C70.8202 25 71.2602 25.29 72.0102 25.38C75.6702 25.82 79.3202 26.34 82.9502 26.98C85.1802 27.37 87.3902 27.84 89.6902 28.29C89.6302 28.06 89.6302 27.97 89.6002 27.91C89.4202 27.62 89.2202 27.33 89.0402 27.04C85.9502 22.34 82.4902 17.93 78.5902 13.88C75.4702 10.64 72.2602 7.48998 68.4302 5.06998C67.8102 4.67998 67.2602 4.50998 66.5102 4.68998C61.8402 5.81998 57.1902 7.03998 52.6302 8.57998C52.3902 8.65998 52.0902 8.65998 51.9502 9.01998C52.1002 9.10998 52.2502 9.20998 52.4102 9.29998C55.3102 10.9 58.0802 12.7 60.7002 14.72H60.6802Z" fill="#FF3A1F"/>
<path d="M67.4398 27.24C66.9198 26.95 66.4498 26.99 66.0098 26.94C59.1798 26.13 52.3198 25.65 45.4398 25.9C44.8098 25.92 44.2798 25.97 43.7798 26.49C40.9198 29.51 37.9298 32.37 34.4698 34.71C34.3798 34.77 34.3298 34.88 34.2598 34.98C34.3498 35.07 34.4198 35.16 34.5098 35.23C38.0398 37.76 41.6798 40.12 45.0598 42.86C45.3798 43.12 45.6598 43.1 45.9898 42.87C46.7798 42.33 47.5998 41.82 48.3998 41.28C54.4098 37.2 60.4198 33.12 66.0098 28.46C66.4698 28.07 66.9298 27.68 67.4498 27.24H67.4398Z" fill="#FF3A1F"/>
<path d="M35.5904 16.84C38.9404 18.51 41.9604 20.69 44.8904 23C45.4404 23.44 45.9604 23.64 46.6604 23.62C49.6204 23.51 52.5704 23.56 55.5204 23.73C59.5804 23.96 63.6304 24.35 67.7204 24.84C67.7204 24.36 67.4404 24.17 67.2504 23.95C62.2904 18.21 56.3204 13.76 49.5804 10.32C48.9704 10.01 48.4404 10.06 47.8304 10.3C43.5704 11.98 39.4004 13.84 35.3404 15.97C35.1604 16.07 34.8804 16.1 34.9104 16.47C35.1204 16.58 35.3404 16.72 35.5804 16.84H35.5904Z" fill="#FF3A1F"/>
<path d="M111.77 181.29C113.39 180.44 113.4 180.43 113.33 178.8C113.22 176.4 112.7 174.08 112.04 171.78C110.14 165.13 106.76 159.43 101.22 155.16C98.6798 153.2 95.9998 151.46 92.8998 150.53C88.6998 149.27 84.3898 148.91 80.0298 149.02C78.5698 149.06 77.1098 149.12 75.6498 149.13C72.5698 149.15 69.4998 149.05 66.4898 148.35C65.0198 148.01 63.5298 147.79 61.8398 147.64C62.6498 148.9 63.6198 149.68 64.7698 150.24C66.4498 151.05 68.2598 151.41 70.0898 151.68C73.5098 152.19 76.9698 152.3 80.3998 152.76C83.7898 153.21 87.1998 153.36 90.5798 153.98C95.5498 154.9 99.6198 157.24 102.95 161.02C106.47 165.02 108.9 169.59 110.42 174.66C111.07 176.83 111.55 179.03 111.77 181.31V181.29Z" fill="#FF3A1F"/>
<path d="M165 62.29C164.14 61.62 164.14 61.61 163.3 62.31C157.33 67.3 151.01 71.81 144.48 76.03C144.28 76.16 144.03 76.24 143.89 76.6C154.21 76.14 163.94 73.46 173.78 70.44C173.36 69.74 172.99 69.36 172.61 68.98C170.23 66.57 167.66 64.38 164.99 62.29H165Z" fill="#FF3A1F"/>
<path d="M175.44 67.93C175.42 67.55 175.39 67.17 175.39 66.78C175.41 65.62 175.29 64.47 174.96 63.36C173.86 59.64 172.68 55.94 171.03 52.41C169.57 49.28 168.03 46.18 166.43 43.11C165.01 40.39 163.47 37.73 161.59 35.29C161.38 35.24 161.28 35.1 161.29 34.89C161.07 34.84 160.97 34.7 160.99 34.48C160.85 34.45 160.79 34.36 160.81 34.22V34.2L160.73 34.21L160.65 34.17C160.59 34.28 160.54 34.38 160.48 34.49V34.52C160.61 34.58 160.64 34.68 160.59 34.8V34.82C160.71 34.89 160.75 34.99 160.7 35.11C160.82 35.19 160.86 35.3 160.8 35.43C161.52 37.86 162.4 40.24 163.02 42.69C164.38 48.02 165.5 53.38 165.31 58.93C165.29 59.45 165.48 59.78 165.88 60.09C169.05 62.52 172.04 65.15 174.86 67.97C175.05 67.99 175.25 68.08 175.44 67.92V67.93Z" fill="#FF3A1F"/>
<path d="M41.8697 23.63C41.8397 23.56 41.8397 23.46 41.7897 23.42C38.9497 21.24 35.9597 19.31 32.6497 17.91C32.2397 17.74 31.9297 17.81 31.5797 18.02C27.4597 20.48 23.3297 22.93 19.3697 25.65C19.3297 25.8 19.2397 25.85 19.0897 25.83C18.9697 26.09 19.0497 26.29 19.3097 26.4C19.3997 26.28 19.5097 26.25 19.6397 26.34C20.1697 26.26 20.6997 26.19 21.2297 26.09C27.8297 24.75 34.4997 23.98 41.2197 23.75C41.4397 23.75 41.6797 23.77 41.8797 23.63H41.8697Z" fill="#FF3A1F"/>
<path d="M200.34 218.8C200.57 218.8 200.66 218.61 200.78 218.46C200.61 218.31 200.62 218.13 200.73 217.95C200.49 217.7 200.43 217.43 200.6 217.12C200.44 216.98 200.43 216.81 200.53 216.63C200.38 214.9 199.94 213.23 199.43 211.57C198.04 207.04 195.57 203.14 192.56 199.53C187.11 192.97 180.43 188.26 172.21 185.83C171.39 185.59 170.57 185.3 169.65 185.28C170.11 186.29 170.11 186.3 170.57 186.48C171.78 186.96 172.99 187.49 174.22 187.9C177.58 189.04 180.57 190.8 183.37 192.95C186.75 195.55 189.52 198.73 192.2 202.01C195.23 205.71 197.53 209.81 199.05 214.35C199.29 215.08 199.52 215.81 199.76 216.54C200.06 216.75 200.12 217.02 199.98 217.35C200.09 217.44 200.12 217.54 200.07 217.67C200.18 217.76 200.21 217.86 200.15 217.99C200.34 218.12 200.34 218.28 200.25 218.47C200.36 218.57 200.39 218.67 200.32 218.8H200.34Z" fill="#FF3A1F"/>
<path d="M22.4102 28.22C23.4502 28.68 24.2502 29.03 25.0402 29.39C27.3202 30.43 29.4002 31.8 31.4902 33.17C31.9502 33.47 32.2502 33.47 32.7102 33.17C35.7202 31.21 38.2802 28.74 40.8202 26.15C34.6902 26.3 28.6402 26.86 22.4202 28.21L22.4102 28.22Z" fill="#FF3A1F"/>
<path d="M197.56 90.14C197.53 90.02 197.53 89.93 197.5 89.88C193.95 84.28 190.04 78.98 184.9 74.71C182.59 72.79 180.21 70.99 177.52 69.62C177.03 69.49 176.53 69.38 176.28 68.86C176.24 68.8 176.18 68.76 176.1 68.75C175.92 68.75 175.74 68.65 175.57 68.77C175.58 68.84 175.62 68.87 175.69 68.89C175.84 68.91 175.91 69.01 175.91 69.16C176.42 69.72 176.67 70.47 177.39 70.88C185.16 75.36 191.07 81.7 195.71 89.29C196.21 90.11 196.76 90.26 197.58 90.14H197.56Z" fill="#FF3A1F"/>
<path d="M200.82 226.31C200.81 227.31 200.63 228.31 200.73 229.31C201.1 228.3 201.19 227.26 201.11 226.2C201.01 226.24 200.91 226.27 200.81 226.31H200.82Z" fill="#070707"/>
<path d="M201.12 226.2C201.18 225.44 201.29 224.68 201.17 223.91C201.05 223.95 200.93 224 200.82 224.04C200.77 224.8 200.96 225.55 200.82 226.31C200.91 226.25 201.01 226.21 201.12 226.2Z" fill="#FF3A1F"/>
<path d="M200.82 226.31C200.92 226.27 201.02 226.24 201.12 226.2C201.01 226.2 200.91 226.24 200.82 226.31Z" fill="#FF3A1F"/>
<path d="M200.6 220.45C200.73 220.4 200.86 220.34 200.99 220.29C201.03 220.22 201.03 220.15 200.99 220.08C200.89 219.99 200.89 219.89 200.95 219.79C200.81 219.63 200.81 219.45 200.91 219.27C200.93 218.99 200.96 218.7 200.79 218.45C200.79 218.75 200.71 218.96 200.34 218.79C200.26 219.16 200.39 219.49 200.48 219.84C200.57 219.91 200.59 220.01 200.54 220.11C200.63 220.21 200.66 220.32 200.6 220.44V220.45Z" fill="#FF3A1F"/>
<path d="M200.34 218.8C200.71 218.97 200.78 218.76 200.79 218.46C200.67 218.61 200.58 218.79 200.35 218.8H200.34Z" fill="#FF3A1F"/>
<path d="M172.09 269.92C172.02 269.89 171.94 269.85 171.87 269.82C171.81 269.95 171.71 269.99 171.57 269.96C171.51 270.08 171.41 270.12 171.28 270.09H171.26C171.2 270.21 171.11 270.25 170.98 270.22H170.95C170.89 270.34 170.81 270.38 170.69 270.35L170.65 270.37C170.59 270.48 170.53 270.58 170.47 270.69C170.48 270.71 170.5 270.71 170.51 270.73C170.52 270.92 170.44 271.07 170.28 271.17C170.41 271.2 170.5 271.15 170.58 271.05C170.64 270.92 170.73 270.87 170.87 270.9H170.88C170.96 270.7 171.09 270.6 171.3 270.64C171.35 270.51 171.45 270.47 171.58 270.48C171.63 270.35 171.71 270.3 171.85 270.33C171.92 270.33 171.97 270.3 171.99 270.23C172.02 270.13 172.05 270.03 172.07 269.93L172.09 269.92Z" fill="#FF3A1F"/>
<path d="M170.48 270.68L170.29 271.16C170.45 271.06 170.53 270.92 170.52 270.72C170.51 270.7 170.49 270.69 170.48 270.68Z" fill="#FF3A1F"/>
<path d="M43.42 235.97C42.96 235.85 42.55 235.55 42.04 235.62C42.29 235.71 42.75 235.59 42.59 236.13C42.93 236.37 43.35 236.22 43.72 236.36C43.71 236.17 43.53 236.1 43.43 235.97H43.42Z" fill="#FF3A1F"/>
<path d="M42.04 235.62C42.18 235.84 42.53 235.82 42.59 236.13C42.75 235.59 42.29 235.72 42.04 235.62Z" fill="#FF3A1F"/>
<path d="M18.8704 26.1699C18.8304 25.9999 18.9304 25.8899 19.0704 25.8199C18.6504 25.9099 18.3704 26.1899 17.9404 26.6199C18.5404 26.5999 18.9304 26.6199 19.2904 26.3899C19.0804 26.4399 18.9204 26.3899 18.8604 26.1599L18.8704 26.1699Z" fill="#FF3A1F"/>
<path d="M19.0704 25.83C18.9204 25.9 18.8204 26.01 18.8704 26.18C18.9204 26.4 19.0804 26.46 19.3004 26.41C19.0304 26.29 18.9604 26.1 19.0804 25.84L19.0704 25.83Z" fill="#FF3A1F"/>
<path d="M176.09 68.7499C175.87 68.4799 175.65 68.2099 175.43 67.9399C175.27 68.3399 175.07 68.2199 174.85 67.9899C174.98 68.3399 175.22 68.5999 175.55 68.7699C175.72 68.3599 175.9 68.5699 176.08 68.7499H176.09Z" fill="#FF3A1F"/>
<path d="M175.44 67.9301C175.26 68.0901 175.06 67.9901 174.86 67.9801C175.07 68.2101 175.27 68.3301 175.44 67.9301Z" fill="#FF3A1F"/>
<path d="M175.56 68.76C175.73 68.65 175.91 68.76 176.09 68.74C175.91 68.55 175.72 68.34 175.56 68.76Z" fill="#FF3A1F"/>
<path d="M200.98 220.29C200.94 220.56 200.8 220.57 200.59 220.45C200.5 220.8 200.63 221.13 200.69 221.46C200.81 221.41 200.92 221.36 201.04 221.3C201.09 220.96 201.12 220.61 200.97 220.28L200.98 220.29Z" fill="#FF3A1F"/>
<path d="M200.6 220.45C200.8 220.57 200.95 220.56 200.99 220.29C200.86 220.34 200.73 220.39 200.6 220.45Z" fill="#FF3A1F"/>
<path d="M167.78 272.37C167.3 272.49 166.86 272.71 166.44 272.97C166.94 272.88 167.38 272.67 167.79 272.37H167.78Z" fill="#FF3A1F"/>
<path d="M167.78 272.37C167.21 272.3 166.76 272.49 166.44 272.98C166.86 272.72 167.3 272.5 167.78 272.38V272.37Z" fill="#FF3A1F"/>
<path d="M43.4199 235.97C43.6499 236 43.9199 236 43.7099 236.36C43.9899 236.52 44.2699 236.55 44.6099 236.34C44.1899 236.08 43.8499 235.87 43.4199 235.97Z" fill="#FF3A1F"/>
<path d="M43.4199 235.97C43.5199 236.1 43.6999 236.17 43.7099 236.36C43.9199 236 43.6399 236 43.4199 235.97Z" fill="#FF3A1F"/>
<path d="M173.19 269.14C173.23 269.26 173.27 269.37 173.32 269.49C173.71 269.39 174.01 269.13 174.33 268.91C174.29 268.8 174.25 268.7 174.21 268.59C173.87 268.76 173.48 268.87 173.2 269.14H173.19Z" fill="#FF3A1F"/>
<path d="M175.91 267.59L174.92 268.16C174.96 268.27 175 268.37 175.04 268.48C175.37 268.28 175.7 268.08 176.03 267.87C175.99 267.77 175.95 267.68 175.91 267.58V267.59Z" fill="#FF3A1F"/>
<path d="M201.14 223.39C201.2 223.04 201.23 222.69 201.12 222.34C201 222.39 200.88 222.44 200.76 222.49C200.78 222.83 200.8 223.17 200.82 223.52C200.92 223.48 201.03 223.43 201.13 223.39H201.14Z" fill="#FF3A1F"/>
<path d="M172.19 269.64C172.16 269.72 172.14 269.8 172.11 269.88C172.12 269.89 172.13 269.91 172.14 269.92C172.14 270.03 172.09 270.13 172.01 270.21C172.14 270.24 172.23 270.18 172.3 270.07C172.37 269.95 172.47 269.89 172.61 269.89C172.7 269.86 172.78 269.81 172.86 269.75C172.94 269.75 172.99 269.71 173.01 269.64L172.92 269.28C172.65 269.35 172.39 269.42 172.19 269.63V269.64Z" fill="#FF3A1F"/>
<path d="M172.14 269.93C172.14 269.93 172.12 269.9 172.11 269.89C172.11 269.9 172.11 269.91 172.1 269.92C172.07 270.02 172.04 270.12 172.02 270.22C172.1 270.14 172.14 270.04 172.15 269.93H172.14Z" fill="#FF3A1F"/>
<path d="M160.53 34.1199C160.53 34.1199 160.56 34.0799 160.59 34.0599C160.71 34.0299 160.79 34.0799 160.83 34.1999C160.74 33.8399 160.54 33.5799 160.15 33.4399C160.09 33.7699 160.15 34.0099 160.33 34.2199C160.39 34.1599 160.46 34.1199 160.53 34.1299V34.1199Z" fill="#FF3A1F"/>
<path d="M160.59 34.06C160.59 34.06 160.55 34.0999 160.53 34.1199C160.57 34.1199 160.61 34.1399 160.66 34.1699L160.74 34.2099H160.83C160.79 34.0799 160.71 34.03 160.59 34.06Z" fill="#FF3A1F"/>
<path d="M170 271.31C169.63 271.43 169.31 271.63 168.98 271.82C169.38 271.77 169.72 271.59 170.01 271.31H170Z" fill="#FF3A1F"/>
<path d="M170 271.31C169.55 271.27 169.19 271.41 168.97 271.83C169.3 271.63 169.62 271.43 169.99 271.32L170 271.31Z" fill="#FF3A1F"/>
<path d="M177.51 69.61C177.18 69.22 176.73 69.02 176.27 68.85C176.58 69.27 177.17 69.23 177.51 69.61Z" fill="#FF3A1F"/>
<path d="M177.51 69.61C177.17 69.23 176.58 69.28 176.27 68.85C176.53 69.37 177.03 69.47 177.51 69.61Z" fill="#FF3A1F"/>
<path d="M174.92 268.17C174.68 268.31 174.44 268.45 174.2 268.59C174.41 268.63 174.5 268.72 174.32 268.91C174.61 268.86 174.81 268.65 175.04 268.49C174.91 268.42 174.93 268.28 174.92 268.17Z" fill="#FF3A1F"/>
<path d="M174.2 268.59C174.24 268.7 174.28 268.8 174.32 268.91C174.5 268.72 174.41 268.63 174.2 268.59Z" fill="#FF3A1F"/>
<path d="M174.92 268.17C174.94 268.29 174.91 268.42 175.04 268.49C175 268.38 174.96 268.28 174.92 268.17Z" fill="#FF3A1F"/>
<path d="M175.91 267.59C176.12 267.62 176.21 267.69 176.03 267.88C176.32 267.78 176.6 267.67 176.67 267.28C176.32 267.28 176.1 267.4 175.91 267.59Z" fill="#FF3A1F"/>
<path d="M175.91 267.59C175.95 267.69 175.99 267.78 176.03 267.88C176.21 267.69 176.13 267.62 175.91 267.59Z" fill="#FF3A1F"/>
<path d="M84.4004 146.58C84.4304 146.83 84.6104 147.07 84.8204 146.97C85.1204 146.82 84.8204 146.62 84.7204 146.46C84.6904 146.41 84.6004 146.39 84.5304 146.36C84.5504 146.47 84.5104 146.55 84.4004 146.59V146.58Z" fill="#FF3A1F"/>
<path d="M84.5402 146.34C84.5002 146.42 84.4502 146.49 84.4102 146.57C84.5202 146.53 84.5602 146.45 84.5402 146.34Z" fill="#FF3A1F"/>
<path d="M175.77 212.16C175.72 212.39 175.74 212.6 175.91 212.79C176.21 212.59 176.21 212.32 176.12 212.02C176.02 212.1 175.92 212.19 175.77 212.16Z" fill="#FF3A1F"/>
<path d="M201.12 222.34C201.16 222.16 201.18 221.99 201.09 221.82C200.97 221.87 200.85 221.93 200.74 221.98C200.75 222.15 200.76 222.32 200.77 222.49C200.88 222.41 200.96 222.28 201.13 222.34H201.12Z" fill="#FF3A1F"/>
<path d="M200.76 222.5C200.88 222.45 201 222.4 201.12 222.35C200.95 222.29 200.87 222.42 200.76 222.5Z" fill="#FF3A1F"/>
<path d="M200.61 217.12C200.64 217.4 200.66 217.67 200.73 217.94C200.83 217.64 200.78 217.37 200.61 217.11V217.12Z" fill="#FF3A1F"/>
<path d="M200.61 217.12C200.44 217.43 200.5 217.7 200.74 217.95C200.67 217.68 200.64 217.4 200.62 217.13L200.61 217.12Z" fill="#FF3A1F"/>
<path d="M201.09 221.82C201.14 221.65 201.15 221.47 201.05 221.31C201.04 221.6 200.89 221.58 200.7 221.47C200.71 221.64 200.72 221.81 200.73 221.99C200.84 221.91 200.92 221.78 201.08 221.83L201.09 221.82Z" fill="#FF3A1F"/>
<path d="M201.05 221.31C200.93 221.36 200.82 221.41 200.7 221.47C200.89 221.59 201.04 221.6 201.05 221.31Z" fill="#FF3A1F"/>
<path d="M200.73 221.98C200.85 221.93 200.97 221.87 201.08 221.82C200.92 221.78 200.83 221.91 200.73 221.98Z" fill="#FF3A1F"/>
<path d="M201.17 223.91C201.21 223.73 201.22 223.56 201.14 223.39C201.13 223.65 201 223.64 200.83 223.52C200.83 223.69 200.83 223.87 200.83 224.04C200.94 223.97 201.03 223.85 201.18 223.91H201.17Z" fill="#FF3A1F"/>
<path d="M201.17 223.91C201.02 223.85 200.93 223.98 200.82 224.04C200.94 224 201.06 223.95 201.17 223.91Z" fill="#FF3A1F"/>
<path d="M201.14 223.39C201.04 223.43 200.93 223.48 200.83 223.52C201 223.64 201.13 223.65 201.14 223.39Z" fill="#FF3A1F"/>
<path d="M199.78 216.54C199.73 216.84 199.81 217.11 200 217.35C199.9 217.09 199.96 216.78 199.78 216.54Z" fill="#FF3A1F"/>
<path d="M199.78 216.54C199.96 216.78 199.9 217.09 200 217.35C200.14 217.02 200.08 216.75 199.78 216.54Z" fill="#FF3A1F"/>
<path d="M175.74 211.65C175.64 211.83 175.74 211.99 175.77 212.17C175.88 212.11 175.97 211.99 176.12 212.03C176.17 211.85 176.21 211.68 176.08 211.52C176.06 211.79 175.92 211.79 175.74 211.66V211.65Z" fill="#FF3A1F"/>
<path d="M176.09 211.51C175.98 211.56 175.86 211.6 175.75 211.65C175.94 211.78 176.07 211.78 176.09 211.51Z" fill="#FF3A1F"/>
<path d="M175.77 212.16C175.92 212.19 176.02 212.1 176.12 212.02C175.97 211.98 175.88 212.1 175.77 212.16Z" fill="#FF3A1F"/>
<path d="M173.19 269.14C173.1 269.19 173.01 269.24 172.92 269.29C173.15 269.36 173.19 269.48 173.01 269.65C173.11 269.6 173.22 269.54 173.32 269.49C173.2 269.4 173.16 269.29 173.19 269.14Z" fill="#FF3A1F"/>
<path d="M173.19 269.14C173.16 269.28 173.19 269.4 173.32 269.49C173.28 269.37 173.24 269.26 173.19 269.14Z" fill="#FF3A1F"/>
<path d="M172.92 269.29L173.01 269.65C173.2 269.48 173.15 269.36 172.92 269.29Z" fill="#FF3A1F"/>
<path d="M200.78 218.45C200.87 218.27 200.85 218.1 200.73 217.94C200.8 218.1 200.67 218.29 200.78 218.45Z" fill="#FF3A1F"/>
<path d="M200.74 217.95C200.62 218.13 200.62 218.3 200.79 218.46C200.68 218.3 200.81 218.12 200.74 217.95Z" fill="#FF3A1F"/>
<path d="M200.79 218.46L200.78 218.45L200.79 218.46Z" fill="#FF3A1F"/>
<path d="M200.78 218.46H200.79L200.78 218.45V218.46Z" fill="#FF3A1F"/>
<path d="M200.61 217.12C200.7 216.94 200.66 216.78 200.54 216.63C200.65 216.78 200.51 216.96 200.61 217.12Z" fill="#FF3A1F"/>
<path d="M200.61 217.12C200.51 216.97 200.65 216.78 200.54 216.63C200.44 216.81 200.45 216.97 200.61 217.12Z" fill="#FF3A1F"/>
<path d="M160.48 34.2C160.48 34.2 160.38 34.23 160.33 34.22C160.38 34.31 160.43 34.4 160.49 34.5C160.43 34.39 160.44 34.2899 160.49 34.2099L160.48 34.2Z" fill="#FF3A1F"/>
<path d="M160.48 34.2C160.43 34.29 160.42 34.38 160.48 34.49C160.54 34.38 160.59 34.28 160.65 34.17C160.59 34.15 160.53 34.17 160.47 34.2H160.48Z" fill="#FF3A1F"/>
<path d="M160.53 34.12C160.46 34.12 160.39 34.15 160.33 34.21C160.38 34.23 160.43 34.21 160.48 34.19C160.49 34.16 160.51 34.14 160.53 34.11V34.12Z" fill="#FF3A1F"/>
<path d="M160.53 34.12C160.53 34.12 160.49 34.17 160.48 34.2C160.54 34.18 160.59 34.15 160.66 34.17C160.62 34.13 160.57 34.12 160.53 34.12Z" fill="#FF3A1F"/>
<path d="M200.73 229.32L200.74 229.33V229.32H200.73Z" fill="#070707"/>
<path d="M200.74 229.33C200.75 229.43 200.52 229.59 200.8 229.6C200.85 229.6 200.81 229.42 200.74 229.33Z" fill="#070707"/>
<path d="M200.16 217.99C200.09 218.17 200.13 218.33 200.27 218.47C200.17 218.32 200.32 218.13 200.17 217.99H200.16Z" fill="#FF3A1F"/>
<path d="M200.16 217.99C200.31 218.12 200.16 218.32 200.26 218.47C200.36 218.28 200.35 218.12 200.16 217.99Z" fill="#FF3A1F"/>
<path d="M161 34.48C161.02 34.68 161.24 34.73 161.3 34.89C161.3 34.68 161.19 34.55 161 34.48Z" fill="#FF3A1F"/>
<path d="M161.3 34.89C161.23 34.73 161.01 34.68 161 34.48C160.99 34.7 161.08 34.84 161.3 34.89Z" fill="#FF3A1F"/>
<path d="M161.3 34.89C161.34 35.07 161.57 35.11 161.6 35.29C161.58 35.1 161.5 34.95 161.3 34.89Z" fill="#FF3A1F"/>
<path d="M161.3 34.89C161.3 35.1 161.39 35.24 161.6 35.29C161.57 35.1 161.34 35.07 161.3 34.89Z" fill="#FF3A1F"/>
<path d="M171.31 270.63C171.11 270.62 171.06 270.86 170.89 270.89C171.08 270.89 171.23 270.81 171.32 270.64L171.31 270.63Z" fill="#FF3A1F"/>
<path d="M171.31 270.63C171.1 270.6 170.96 270.69 170.89 270.89C171.07 270.87 171.11 270.62 171.31 270.63Z" fill="#FF3A1F"/>
<path d="M200.95 219.79C201.03 219.61 201.01 219.44 200.91 219.27C200.97 219.44 200.83 219.62 200.95 219.79Z" fill="#FF3A1F"/>
<path d="M200.95 219.79C200.84 219.63 200.98 219.44 200.91 219.27C200.81 219.45 200.8 219.63 200.95 219.79Z" fill="#FF3A1F"/>
<path d="M170.48 270.67C170.43 270.5 170.48 270.39 170.66 270.36C170.48 270.34 170.33 270.38 170.24 270.56C170.35 270.56 170.42 270.6 170.48 270.68V270.67Z" fill="#FF3A1F"/>
<path d="M170.48 270.68C170.42 270.6 170.34 270.56 170.24 270.56C170.32 270.6 170.4 270.64 170.48 270.68Z" fill="#FF3A1F"/>
<path d="M170.48 270.67C170.54 270.56 170.6 270.46 170.66 270.35C170.47 270.38 170.43 270.5 170.48 270.66V270.67Z" fill="#FF3A1F"/>
<path d="M172.08 269.86C172.08 269.81 172.08 269.76 172.1 269.72C172.14 269.66 172.17 269.64 172.18 269.65C172.04 269.65 171.93 269.7 171.87 269.83C171.95 269.81 172.02 269.82 172.08 269.87V269.86Z" fill="#FF3A1F"/>
<path d="M172.09 269.92C172.09 269.9 172.09 269.88 172.08 269.86C172.03 269.81 171.96 269.8 171.87 269.82C171.94 269.85 172.02 269.89 172.09 269.92Z" fill="#FF3A1F"/>
<path d="M172.08 269.86C172.08 269.86 172.09 269.88 172.1 269.89C172.13 269.81 172.15 269.73 172.18 269.65C172.16 269.65 172.14 269.67 172.1 269.72C172.07 269.76 172.07 269.81 172.08 269.86Z" fill="#FF3A1F"/>
<path d="M172.09 269.92C172.09 269.92 172.09 269.9 172.1 269.89C172.1 269.89 172.09 269.87 172.08 269.86C172.08 269.88 172.08 269.9 172.09 269.92Z" fill="#FF3A1F"/>
<path d="M172.61 269.9C172.49 269.94 172.38 269.98 172.3 270.08C172.43 270.08 172.54 270.02 172.61 269.9Z" fill="#FF3A1F"/>
<path d="M172.3 270.08C172.38 269.98 172.49 269.94 172.61 269.9C172.47 269.9 172.37 269.96 172.3 270.08Z" fill="#FF3A1F"/>
<path d="M171.58 269.96C171.67 269.9 171.78 269.88 171.88 269.83C171.75 269.8 171.65 269.83 171.58 269.96Z" fill="#FF3A1F"/>
<path d="M171.88 269.82C171.79 269.88 171.68 269.9 171.58 269.95C171.72 269.99 171.81 269.95 171.88 269.82Z" fill="#FF3A1F"/>
<path d="M200.34 218.8C200.34 218.69 200.28 218.59 200.27 218.49C200.2 218.62 200.23 218.72 200.34 218.81V218.8Z" fill="#FF3A1F"/>
<path d="M200.34 218.8C200.4 218.68 200.38 218.57 200.27 218.49C200.27 218.6 200.35 218.69 200.34 218.8Z" fill="#FF3A1F"/>
<path d="M171.29 270.09C171.38 270.03 171.47 269.99 171.58 269.96C171.45 269.93 171.35 269.96 171.29 270.09Z" fill="#FF3A1F"/>
<path d="M171.58 269.96C171.48 269.99 171.38 270.03 171.29 270.09C171.42 270.12 171.51 270.09 171.58 269.96Z" fill="#FF3A1F"/>
<path d="M171.27 270.09C171.14 270.05 171.05 270.09 170.99 270.21C171.07 270.14 171.16 270.1 171.27 270.09Z" fill="#FF3A1F"/>
<path d="M171.27 270.09C171.17 270.1 171.07 270.14 170.99 270.21C171.11 270.25 171.21 270.21 171.27 270.09Z" fill="#FF3A1F"/>
<path d="M171.6 270.47C171.73 270.49 171.82 270.46 171.86 270.32C171.78 270.38 171.69 270.43 171.6 270.47Z" fill="#FF3A1F"/>
<path d="M171.6 270.47C171.69 270.43 171.78 270.38 171.86 270.32C171.73 270.29 171.64 270.34 171.59 270.47H171.6Z" fill="#FF3A1F"/>
<path d="M170.97 270.23C170.85 270.19 170.76 270.23 170.71 270.34C170.78 270.26 170.87 270.23 170.97 270.23Z" fill="#FF3A1F"/>
<path d="M170.97 270.23C170.87 270.23 170.78 270.27 170.71 270.34C170.83 270.38 170.92 270.34 170.97 270.23Z" fill="#FF3A1F"/>
<path d="M200.16 217.99C200.19 217.87 200.14 217.77 200.08 217.68C200.02 217.81 200.04 217.91 200.16 218V217.99Z" fill="#FF3A1F"/>
<path d="M200.16 217.99C200.22 217.86 200.19 217.76 200.08 217.67C200.14 217.77 200.19 217.86 200.16 217.98V217.99Z" fill="#FF3A1F"/>
<path d="M200.16 217.98L200.15 217.99L200.16 218V217.98Z" fill="#FF3A1F"/>
<path d="M175.89 69.14C175.83 69.04 175.79 68.93 175.67 68.87C175.67 69.02 175.74 69.11 175.89 69.14Z" fill="#FF3A1F"/>
<path d="M175.68 68.88C175.79 68.94 175.83 69.05 175.9 69.15C175.9 69 175.84 68.91 175.68 68.88Z" fill="#FF3A1F"/>
<path d="M19.0801 25.8199C19.1701 25.7599 19.2801 25.7199 19.3601 25.6399C19.2101 25.6199 19.1201 25.6699 19.0801 25.8199Z" fill="#FF3A1F"/>
<path d="M19.3601 25.64C19.2801 25.72 19.1701 25.76 19.0801 25.82C19.2301 25.85 19.3301 25.79 19.3601 25.64Z" fill="#FF3A1F"/>
<path d="M169.94 270.71C170.06 270.71 170.17 270.68 170.25 270.58C170.11 270.54 170.01 270.58 169.94 270.7C169.94 270.7 169.94 270.7 169.95 270.7L169.94 270.71Z" fill="#FF3A1F"/>
<path d="M169.94 270.71C170.07 270.74 170.18 270.7 170.25 270.58C170.17 270.69 170.06 270.71 169.94 270.71Z" fill="#FF3A1F"/>
<path d="M160.8 35.43C160.76 35.33 160.73 35.23 160.7 35.12C160.64 35.25 160.68 35.35 160.8 35.43Z" fill="#FF3A1F"/>
<path d="M160.7 35.13C160.72 35.23 160.76 35.34 160.8 35.44C160.86 35.31 160.82 35.21 160.7 35.13Z" fill="#FF3A1F"/>
<path d="M170.88 270.89C170.79 270.95 170.68 270.98 170.59 271.04C170.72 271.06 170.82 271.02 170.88 270.89Z" fill="#FF3A1F"/>
<path d="M170.59 271.04C170.68 270.98 170.79 270.95 170.88 270.89C170.74 270.86 170.65 270.91 170.59 271.04Z" fill="#FF3A1F"/>
<path d="M169.64 270.83C169.76 270.83 169.86 270.79 169.94 270.71C169.81 270.68 169.71 270.71 169.64 270.83C169.64 270.83 169.64 270.83 169.65 270.83H169.64Z" fill="#FF3A1F"/>
<path d="M169.64 270.83C169.77 270.86 169.87 270.82 169.94 270.71C169.86 270.79 169.76 270.83 169.64 270.83Z" fill="#FF3A1F"/>
<path d="M169.94 270.71L169.95 270.7L169.94 270.71Z" fill="#FF3A1F"/>
<path d="M169.95 270.7L169.93 270.71H169.94L169.95 270.7Z" fill="#FF3A1F"/>
<path d="M169.34 270.94C169.46 270.94 169.56 270.9 169.64 270.82C169.51 270.78 169.41 270.82 169.34 270.94C169.34 270.94 169.34 270.94 169.35 270.94H169.34Z" fill="#FF3A1F"/>
<path d="M169.34 270.94C169.47 270.97 169.57 270.94 169.65 270.82C169.56 270.9 169.46 270.94 169.35 270.94H169.34Z" fill="#FF3A1F"/>
<path d="M169.65 270.82H169.64L169.63 270.83L169.65 270.82Z" fill="#FF3A1F"/>
<path d="M169.64 270.83L169.65 270.82L169.64 270.83Z" fill="#FF3A1F"/>
<path d="M169.65 270.82L169.63 270.83H169.64L169.65 270.82Z" fill="#FF3A1F"/>
<path d="M170.29 271.16C170.18 271.18 170.08 271.21 170 271.31C170 271.31 170 271.31 169.99 271.32C170.13 271.35 170.22 271.29 170.28 271.17L170.29 271.16Z" fill="#FF3A1F"/>
<path d="M170 271.3C170.07 271.21 170.18 271.18 170.29 271.15C170.16 271.14 170.06 271.18 170 271.3Z" fill="#FF3A1F"/>
<path d="M169.99 271.31C169.99 271.31 169.99 271.31 170 271.3H169.98L169.99 271.31Z" fill="#FF3A1F"/>
<path d="M169.03 271.06C169.15 271.06 169.25 271.02 169.33 270.94C169.2 270.9 169.1 270.94 169.03 271.06C169.03 271.06 169.03 271.06 169.04 271.06H169.03Z" fill="#FF3A1F"/>
<path d="M169.03 271.06C169.16 271.09 169.26 271.05 169.33 270.94C169.25 271.02 169.15 271.06 169.03 271.06Z" fill="#FF3A1F"/>
<path d="M169.34 270.94H169.33V270.95L169.34 270.94Z" fill="#FF3A1F"/>
<path d="M169.34 270.94L169.33 270.95V270.94H169.34Z" fill="#FF3A1F"/>
<path d="M169.33 270.94V270.95H169.34V270.94H169.33Z" fill="#FF3A1F"/>
<path d="M200.08 217.67C200.08 217.56 200.02 217.47 200 217.36C199.94 217.49 199.97 217.59 200.08 217.67Z" fill="#FF3A1F"/>
<path d="M200.08 217.67C200.14 217.54 200.11 217.44 199.99 217.36C200.01 217.46 200.06 217.56 200.07 217.67H200.08Z" fill="#FF3A1F"/>
<path d="M168.73 271.18C168.85 271.18 168.95 271.14 169.03 271.07C168.9 271.03 168.8 271.07 168.72 271.19C168.72 271.19 168.72 271.19 168.73 271.19V271.18Z" fill="#FF3A1F"/>
<path d="M168.73 271.18C168.86 271.21 168.96 271.18 169.03 271.06C168.95 271.14 168.85 271.18 168.73 271.17V271.18Z" fill="#FF3A1F"/>
<path d="M168.42 271.3C168.54 271.3 168.64 271.26 168.72 271.18C168.59 271.14 168.49 271.18 168.42 271.3C168.42 271.3 168.42 271.3 168.43 271.3H168.42Z" fill="#FF3A1F"/>
<path d="M168.42 271.3C168.55 271.33 168.65 271.29 168.72 271.18C168.64 271.26 168.54 271.3 168.42 271.3Z" fill="#FF3A1F"/>
<path d="M168.73 271.17L168.72 271.18H168.73V271.17Z" fill="#FF3A1F"/>
<path d="M168.12 271.41C168.24 271.41 168.34 271.37 168.42 271.29C168.29 271.25 168.19 271.29 168.12 271.41C168.12 271.41 168.12 271.41 168.13 271.41H168.12Z" fill="#FF3A1F"/>
<path d="M168.12 271.41C168.25 271.44 168.35 271.4 168.42 271.29C168.34 271.37 168.24 271.41 168.12 271.41Z" fill="#FF3A1F"/>
<path d="M168.42 271.3L168.43 271.29L168.42 271.3Z" fill="#FF3A1F"/>
<path d="M168.43 271.29L168.41 271.3H168.42L168.43 271.29Z" fill="#FF3A1F"/>
<path d="M167.81 271.53C167.93 271.53 168.03 271.5 168.11 271.42C167.98 271.38 167.88 271.42 167.8 271.54C167.8 271.54 167.8 271.54 167.81 271.54V271.53Z" fill="#FF3A1F"/>
<path d="M167.81 271.53C167.94 271.56 168.04 271.53 168.12 271.41C168.04 271.49 167.94 271.53 167.82 271.52L167.81 271.53Z" fill="#FF3A1F"/>
<path d="M168.68 271.96C168.81 271.99 168.91 271.95 168.98 271.82C168.88 271.86 168.77 271.89 168.69 271.95L168.68 271.96Z" fill="#FF3A1F"/>
<path d="M168.68 271.96C168.77 271.89 168.87 271.86 168.97 271.83C168.84 271.81 168.74 271.86 168.67 271.96H168.68Z" fill="#FF3A1F"/>
<path d="M167.51 271.64C167.63 271.65 167.73 271.61 167.81 271.53C167.68 271.49 167.58 271.53 167.5 271.64C167.5 271.64 167.5 271.64 167.51 271.64Z" fill="#FF3A1F"/>
<path d="M167.51 271.64C167.64 271.67 167.74 271.64 167.82 271.53C167.74 271.61 167.64 271.65 167.52 271.64H167.51Z" fill="#FF3A1F"/>
<path d="M167.81 271.53L167.82 271.52L167.81 271.53Z" fill="#FF3A1F"/>
<path d="M167.82 271.52L167.8 271.53H167.81L167.82 271.52Z" fill="#FF3A1F"/>
<path d="M168.67 271.96C168.56 271.98 168.46 272.01 168.38 272.09C168.51 272.12 168.61 272.07 168.67 271.95V271.96Z" fill="#FF3A1F"/>
<path d="M168.67 271.96C168.54 271.94 168.44 271.99 168.37 272.09C168.45 272.01 168.55 271.97 168.66 271.96H168.67Z" fill="#FF3A1F"/>
<path d="M167.2 271.75C167.32 271.77 167.42 271.73 167.5 271.64C167.5 271.64 167.5 271.64 167.49 271.64C167.36 271.6 167.26 271.64 167.18 271.75C167.18 271.75 167.18 271.75 167.19 271.75H167.2Z" fill="#FF3A1F"/>
<path d="M167.2 271.75C167.33 271.78 167.43 271.75 167.51 271.64C167.43 271.73 167.33 271.77 167.21 271.75H167.2Z" fill="#FF3A1F"/>
<path d="M167.51 271.64V271.63L167.5 271.64H167.51Z" fill="#FF3A1F"/>
<path d="M168.38 272.09C168.38 272.09 168.31 272.09 168.28 272.09C168.24 272.09 168.2 272.11 168.17 272.14C168.14 272.16 168.11 272.18 168.09 272.22C168.09 272.22 168.09 272.22 168.1 272.22C168.1 272.22 168.1 272.22 168.09 272.23C168.22 272.26 168.32 272.21 168.39 272.09C168.39 272.09 168.39 272.09 168.38 272.09Z" fill="#FF3A1F"/>
<path d="M168.28 272.1C168.28 272.1 168.2 272.12 168.17 272.15C168.2 272.13 168.24 272.11 168.28 272.1Z" fill="#FF3A1F"/>
<path d="M168.38 272.09L168.37 272.1L168.38 272.09Z" fill="#FF3A1F"/>
<path d="M168.37 272.1L168.39 272.09H168.38L168.37 272.1Z" fill="#FF3A1F"/>
<path d="M166.89 271.86C167.01 271.89 167.11 271.85 167.2 271.76C167.2 271.76 167.2 271.76 167.19 271.76C167.06 271.72 166.96 271.76 166.88 271.87C166.88 271.87 166.88 271.87 166.89 271.87V271.86Z" fill="#FF3A1F"/>
<path d="M166.89 271.86C167.02 271.9 167.12 271.86 167.2 271.75C167.12 271.84 167.02 271.89 166.89 271.85V271.86Z" fill="#FF3A1F"/>
<path d="M168.08 272.23C168.01 272.22 167.94 272.23 167.89 272.25C167.85 272.27 167.81 272.31 167.78 272.37C167.78 272.37 167.78 272.37 167.79 272.37C167.79 272.37 167.79 272.37 167.78 272.37C167.91 272.4 168.01 272.35 168.08 272.23C168.08 272.23 168.08 272.23 168.07 272.23C168.07 272.23 168.07 272.23 168.07 272.22L168.08 272.23Z" fill="#FF3A1F"/>
<path d="M168.08 272.23C168 272.21 167.94 272.22 167.89 272.25C167.94 272.22 168.01 272.22 168.08 272.23Z" fill="#FF3A1F"/>
<path d="M168.08 272.23C168.08 272.23 168.08 272.23 168.08 272.24C168.08 272.24 168.08 272.24 168.09 272.23H168.08Z" fill="#FF3A1F"/>
<path d="M167.78 272.38H167.79L167.8 272.37L167.78 272.38Z" fill="#FF3A1F"/>
<path d="M168.07 272.24C168.07 272.24 168.07 272.24 168.08 272.24C168.08 272.24 168.08 272.24 168.09 272.23H168.07V272.24Z" fill="#FF3A1F"/>
<path d="M168.07 272.24H168.09C168.09 272.24 168.09 272.24 168.08 272.24C168.08 272.24 168.08 272.24 168.07 272.25V272.24Z" fill="#FF3A1F"/>
<path d="M166.58 271.97C166.71 272 166.81 271.97 166.89 271.86C166.89 271.86 166.89 271.86 166.88 271.86C166.75 271.82 166.65 271.86 166.57 271.97C166.57 271.97 166.57 271.97 166.58 271.97Z" fill="#FF3A1F"/>
<path d="M166.58 271.97C166.71 272.01 166.81 271.97 166.89 271.85C166.81 271.96 166.71 272 166.58 271.96V271.97Z" fill="#FF3A1F"/>
<path d="M166.89 271.86L166.9 271.85L166.89 271.86Z" fill="#FF3A1F"/>
<path d="M160.7 35.12C160.64 35.03 160.61 34.93 160.6 34.83C160.55 34.96 160.58 35.05 160.7 35.12Z" fill="#FF3A1F"/>
<path d="M160.6 34.8199C160.61 34.9299 160.64 35.0199 160.7 35.1099C160.75 34.9799 160.72 34.8899 160.6 34.8199Z" fill="#FF3A1F"/>
<path d="M166.28 272.09C166.41 272.13 166.51 272.09 166.58 271.98C166.58 271.98 166.58 271.98 166.57 271.98C166.44 271.95 166.34 271.98 166.26 272.09C166.26 272.09 166.26 272.09 166.27 272.09H166.28Z" fill="#FF3A1F"/>
<path d="M166.28 272.09L166.29 272.08L166.28 272.09Z" fill="#FF3A1F"/>
<path d="M166.21 272.16C166.21 272.16 166.26 272.11 166.28 272.08C166.28 272.08 166.28 272.08 166.26 272.08C166.12 272.05 166 272.08 165.91 272.2C166.02 272.23 166.12 272.22 166.19 272.16H166.21Z" fill="#FF3A1F"/>
<path d="M166.21 272.16C166.13 272.22 166.03 272.23 165.93 272.2C166.04 272.24 166.14 272.23 166.21 272.16Z" fill="#FF3A1F"/>
<path d="M200.98 220.08C201.06 219.97 201.03 219.88 200.95 219.78C200.97 219.88 200.98 219.97 200.98 220.07V220.08Z" fill="#FF3A1F"/>
<path d="M200.95 219.8C200.88 219.91 200.89 220.01 200.99 220.09C200.99 219.99 200.97 219.9 200.96 219.8H200.95Z" fill="#FF3A1F"/>
<path d="M160.5 34.52C160.44 34.64 160.48 34.74 160.6 34.8C160.53 34.72 160.5 34.62 160.5 34.52Z" fill="#FF3A1F"/>
<path d="M160.5 34.52C160.5 34.63 160.53 34.72 160.6 34.8C160.66 34.68 160.63 34.58 160.5 34.52Z" fill="#FF3A1F"/>
<path d="M19.6298 26.3399C19.5098 26.3299 19.4098 26.3699 19.2998 26.3999C19.4298 26.4799 19.5398 26.4599 19.6298 26.3399Z" fill="#FF3A1F"/>
<path d="M19.2998 26.4C19.4098 26.37 19.5098 26.33 19.6298 26.34C19.4998 26.25 19.3898 26.28 19.2998 26.4Z" fill="#FF3A1F"/>
<path d="M160.99 34.47C161.01 34.33 160.95 34.24 160.81 34.21C160.87 34.3 160.93 34.38 160.99 34.47Z" fill="#FF3A1F"/>
<path d="M161 34.48C160.94 34.4 160.88 34.31 160.82 34.22C160.8 34.36 160.86 34.45 161 34.48Z" fill="#FF3A1F"/>
<path d="M161 34.48L160.99 34.47L161 34.48Z" fill="#FF3A1F"/>
<path d="M160.99 34.47L161 34.48L160.99 34.47Z" fill="#FF3A1F"/>
<path d="M161 34.48L160.99 34.47L161 34.48Z" fill="#FF3A1F"/>
<path d="M200.48 219.85C200.42 219.96 200.45 220.04 200.54 220.12C200.49 220.04 200.47 219.95 200.48 219.85Z" fill="#FF3A1F"/>
<path d="M200.48 219.85C200.47 219.95 200.48 220.04 200.54 220.12C200.59 220.02 200.58 219.92 200.48 219.85Z" fill="#FF3A1F"/>
<path d="M200.6 220.45C200.64 220.33 200.56 220.24 200.54 220.13C200.48 220.25 200.5 220.36 200.6 220.45Z" fill="#FF3A1F"/>
<path d="M200.6 220.45C200.66 220.33 200.63 220.22 200.54 220.13C200.56 220.24 200.64 220.33 200.6 220.45Z" fill="#FF3A1F"/>
<path d="M171.6 270.47C171.5 270.51 171.38 270.52 171.32 270.63C171.46 270.65 171.55 270.59 171.6 270.47Z" fill="#FF3A1F"/>
<path d="M171.6 270.47C171.47 270.46 171.37 270.5 171.32 270.63C171.38 270.52 171.5 270.51 171.6 270.47Z" fill="#FF3A1F"/>
<path d="M210.31 98.39C210.46 98.4 210.72 98.43 210.99 98.44C212.25 98.48 213.52 98.53 214.78 98.56C215.05 98.56 215.32 98.58 215.58 98.53C215.98 98.45 216.31 98.26 216.31 97.78C216.31 97.32 216.06 97.07 215.65 96.96C215.5 96.92 215.35 96.91 215.2 96.9C213.74 96.85 212.29 96.81 210.83 96.77C210.61 96.77 210.37 96.8 210.16 96.88C209.86 96.99 209.63 97.2 209.63 97.56C209.63 97.96 209.83 98.21 210.31 98.38V98.39Z" fill="#070707"/>
<path d="M204.77 97.79C205.49 97.91 206.22 97.88 206.94 97.77C207.29 97.71 207.55 97.46 207.56 97.05C207.57 96.65 207.33 96.42 206.97 96.25C206.24 96.12 205.48 96.1 204.73 96.3C204.36 96.4 204.16 96.69 204.16 97.07C204.16 97.47 204.4 97.74 204.77 97.8V97.79Z" fill="#070707"/>
</g>
<defs>
<clipPath id="clip0_203_4524">
<rect width="221.75" height="280.24" fill="white"/>
</clipPath>
</defs>
</svg>
