<svg width="512" height="512" viewBox="0 0 512 512" fill="none" xmlns="http://www.w3.org/2000/svg">
<g clip-path="url(#clip0_213_6331)">
<path d="M15.5401 349.73C89.4985 363.162 182.358 345.958 221.97 337.118C189.239 393.181 152.768 446.975 112.803 498.133C111.591 499.633 110.923 501.499 110.907 503.428C110.892 505.356 111.53 507.233 112.718 508.752C113.905 510.271 115.573 511.343 117.448 511.794C119.323 512.244 121.295 512.046 123.043 511.232C210.083 471.689 288.146 376.917 303.045 358.17C467.329 347.981 503.468 219.657 503.468 170.667C503.918 149.273 497.181 128.346 484.336 111.232L477.799 58.6752C477.611 57.1695 477.025 55.7411 476.102 54.5372C475.178 53.3334 473.95 52.3977 472.544 51.8265C471.138 51.2553 469.605 51.0693 468.104 51.2877C466.602 51.506 465.186 52.1209 464.001 53.0688L423.416 85.4955C412.655 85.7798 402.107 88.5555 392.6 93.6045C383.093 98.6534 374.886 105.838 368.624 114.594C357.167 102.229 347.67 88.1824 340.464 72.9429C312.475 17.0667 282.352 17.0667 247.468 17.0667C193.68 15.3296 140.089 9.68849 87.1177 0.187723C85.7557 -0.110002 84.3415 -0.0694826 82.9988 0.305738C81.6561 0.680958 80.4257 1.37945 79.4154 2.34012C78.4051 3.30079 77.6455 4.49438 77.2031 5.8165C76.7607 7.13862 76.649 8.54899 76.8777 9.92426C77.2532 12.1685 81.5711 31.9744 116.856 49.536C128.021 68.5933 144.834 83.7091 164.967 92.7915C168.333 103.509 174.221 113.262 182.137 121.233C190.052 129.203 199.765 135.158 210.459 138.598C202.454 142.865 193.563 147.874 184.278 153.105C143.131 176.401 86.7337 208.29 42.6676 208.29C41.1227 208.29 39.6067 208.709 38.2814 209.503C36.9561 210.297 35.8711 211.436 35.1423 212.798C34.4135 214.16 34.0681 215.694 34.143 217.237C34.218 218.781 34.7105 220.274 35.5679 221.559C36.7967 223.386 56.0991 250.931 106.395 250.931C110.439 250.931 114.74 250.701 119.195 250.317C134.727 262.947 154.209 269.708 174.226 269.414C179.465 269.366 184.693 268.932 189.868 268.117C194.108 270.641 198.623 272.671 203.325 274.167C121.097 320.666 17.298 332.723 16.146 332.851C14.1078 333.075 12.2183 334.026 10.8235 335.529C9.42861 337.032 8.6216 338.987 8.55011 341.036C8.47863 343.085 9.14745 345.092 10.4342 346.688C11.7209 348.285 13.5395 349.365 15.5572 349.73H15.5401ZM462.755 75.9467L465.085 94.72C459.627 91.707 453.793 89.4315 447.736 87.9531L462.755 75.9467ZM188.084 101.897C210.159 108.218 233.042 111.262 256.001 110.933C258.264 110.933 260.435 110.034 262.035 108.434C263.635 106.834 264.534 104.663 264.534 102.4C264.534 100.137 263.635 97.9663 262.035 96.366C260.435 94.7657 258.264 93.8667 256.001 93.8667C228.493 94.679 201.126 89.6413 175.711 79.0869C165.76 74.7079 156.548 68.8124 148.404 61.6107C180.585 70.3917 213.659 75.4875 246.99 76.8C249.213 76.859 251.372 76.0493 253.008 74.5428C254.644 73.0362 255.629 70.9514 255.754 68.7307C255.878 66.51 255.132 64.3282 253.674 62.6484C252.217 60.9686 250.162 59.9229 247.945 59.7333C195.201 56.7808 154.454 48.5888 126.704 35.3792C118.334 31.6149 110.569 26.6282 103.664 20.5824C151.28 27.9979 199.305 32.5205 247.468 34.1333C281.43 34.1333 301.927 34.1333 325.121 80.6059C333.718 98.9141 345.436 115.587 359.749 129.877C353.555 142.603 350.184 156.517 349.868 170.667C349.663 174.933 348.101 179.012 345.405 182.323C339.279 181.201 333.291 179.424 327.544 177.024C312.124 170.161 297.921 160.838 285.492 149.419C283.009 147.319 280.543 145.254 278.06 143.266C279.235 142.436 280.177 141.318 280.797 140.02C281.417 138.722 281.694 137.286 281.601 135.851C281.515 134.729 281.208 133.635 280.697 132.632C280.187 131.63 279.483 130.738 278.626 130.008C277.77 129.278 276.777 128.725 275.706 128.381C274.635 128.036 273.506 127.907 272.385 128C264.85 128.631 257.289 128.819 249.737 128.572H249.678C247.072 128.151 244.431 127.982 241.793 128.068C236.014 127.571 230.286 126.597 224.667 125.158C210.014 122.199 196.979 113.911 188.084 101.897ZM190.294 250.88C174.967 254.059 159.033 252.441 144.658 246.246C173.108 239.148 200.456 228.201 225.947 213.709C226.93 213.172 227.799 212.447 228.503 211.574C229.206 210.702 229.731 209.699 230.047 208.624C230.363 207.549 230.465 206.422 230.345 205.307C230.226 204.193 229.888 203.113 229.351 202.129C228.815 201.145 228.089 200.277 227.217 199.573C226.344 198.869 225.342 198.345 224.267 198.028C223.191 197.712 222.064 197.611 220.95 197.73C219.836 197.85 218.756 198.187 217.772 198.724C131.261 245.931 84.8052 235.255 63.8729 223.471C107.547 216.124 155.956 188.757 192.726 168.004C204.852 161.178 216.304 154.684 225.691 149.999C247.024 139.341 256.214 147.081 274.51 162.492C288.267 175.044 303.971 185.281 321.008 192.802C332.818 198.098 345.617 200.831 358.56 200.822C371.503 200.814 384.298 198.063 396.101 192.751C398.161 191.812 399.763 190.093 400.555 187.972C401.347 185.852 401.264 183.504 400.325 181.444C399.386 179.385 397.667 177.783 395.547 176.991C393.426 176.198 391.078 176.281 389.019 177.22C381.209 180.764 372.828 182.882 364.272 183.475C365.998 179.424 366.903 175.07 366.934 170.667C367.297 157.084 370.999 143.799 377.712 131.985C382.102 124.097 388.284 117.35 395.759 112.289C403.235 107.228 411.796 103.995 420.75 102.85C429.705 101.705 438.804 102.68 447.312 105.697C455.821 108.714 463.502 113.688 469.735 120.218C481.07 134.54 486.973 152.411 486.401 170.667C486.401 172.211 481.58 319.693 319.071 339.49C334.586 323.261 352.154 309.127 371.329 297.446C425.089 265.173 441.917 245.581 443.572 210.842C444.902 200.833 443.836 190.651 440.462 181.134C437.089 171.617 431.504 163.037 424.167 156.1C422.804 154.233 421.934 152.053 421.635 149.761C421.337 147.469 421.621 145.138 422.461 142.985C424.278 138.701 428.545 136.533 435.201 136.533C437.464 136.533 439.635 135.634 441.235 134.034C442.835 132.434 443.734 130.263 443.734 128C443.734 125.737 442.835 123.566 441.235 121.966C439.635 120.366 437.464 119.467 435.201 119.467C429.284 119.021 423.373 120.414 418.278 123.455C413.182 126.496 409.15 131.037 406.734 136.457C404.583 141.717 403.947 147.474 404.895 153.077C405.843 158.68 408.339 163.907 412.101 168.166C417.159 172.76 421.101 178.448 423.625 184.797C426.15 191.146 427.19 197.988 426.668 204.8C426.668 216.397 424.389 229.436 415.003 236.373C409.317 240.147 402.598 242.058 395.777 241.843C397.381 239.403 398.849 236.868 400.172 234.257C401.183 232.232 401.349 229.887 400.632 227.739C399.915 225.592 398.374 223.817 396.349 222.805C394.323 221.794 391.979 221.628 389.831 222.345C387.683 223.062 385.909 224.603 384.897 226.628C382.109 232.456 378.25 237.707 373.522 242.108C367.786 247.153 360.441 249.99 352.803 250.112C357.259 245.525 361.41 240.65 365.228 235.52C366.586 233.709 367.169 231.434 366.849 229.193C366.528 226.953 365.331 224.931 363.521 223.573C361.71 222.215 359.435 221.632 357.194 221.952C354.954 222.272 352.932 223.469 351.574 225.28C345.107 234.204 337.341 242.111 328.534 248.738C322.17 253.781 314.762 257.342 306.848 259.16C298.934 260.979 290.714 261.01 282.787 259.251C293.467 252.659 303.547 245.14 312.91 236.783C314.607 235.282 315.639 233.169 315.778 230.908C315.917 228.647 315.153 226.423 313.652 224.725C312.152 223.028 310.038 221.996 307.777 221.857C305.516 221.718 303.292 222.482 301.595 223.983C288.984 235.615 274.689 245.276 259.192 252.638C249.4 257.295 238.782 259.966 227.952 260.497H227.696C225.027 260.572 222.356 260.47 219.7 260.19C240.346 252.205 259.918 241.682 277.966 228.864C279.811 227.572 281.071 225.602 281.469 223.384C281.868 221.167 281.374 218.882 280.094 217.027C278.814 215.173 276.853 213.9 274.638 213.486C272.423 213.072 270.135 213.551 268.272 214.818C245.073 232.136 218.514 244.419 190.294 250.88ZM230.64 277.436C241.493 276.684 252.145 274.123 262.153 269.858C273.612 275.774 286.473 278.435 299.338 277.552C312.203 276.668 324.58 272.275 335.122 264.849C340.498 266.325 346.036 267.127 351.608 267.238C362.204 267.298 372.535 263.927 381.057 257.63C385.725 258.483 390.452 258.935 395.197 258.953C396.238 258.953 397.347 258.825 398.422 258.773C386.982 267.554 374.994 275.597 362.531 282.854C335.538 299.159 311.629 320.093 291.901 344.695C291.167 345.651 226.988 428.322 150.392 476.885C185.571 429.516 217.647 379.919 246.418 328.405C247.217 326.94 247.568 325.273 247.429 323.611C247.29 321.948 246.667 320.363 245.636 319.05C244.605 317.738 243.213 316.757 241.63 316.228C240.048 315.699 238.345 315.646 236.733 316.075C186.751 328.525 135.601 335.698 84.1225 337.476C135.969 325.749 185.492 305.445 230.648 277.402L230.64 277.436Z" fill="#FF3A1F"/>
<path d="M14.9944 102.144L36.6605 107.563L18.7747 131.413C17.4168 133.224 16.8337 135.5 17.1538 137.74C17.4738 139.981 18.6708 142.002 20.4813 143.36C22.2919 144.718 24.5677 145.301 26.8081 144.981C29.0486 144.661 31.0701 143.464 32.428 141.653L51.2013 116.625L69.9747 141.653C71.3326 143.464 73.3541 144.661 75.5945 144.981C77.835 145.301 80.1108 144.718 81.9213 143.36C83.7319 142.002 84.9288 139.981 85.2489 137.74C85.569 135.5 84.9859 133.224 83.628 131.413L65.708 107.563L87.3741 102.144C88.4681 101.878 89.4986 101.399 90.4063 100.733C91.3141 100.067 92.0812 99.2283 92.6633 98.2648C93.2455 97.3012 93.6313 96.2321 93.7984 95.1188C93.9655 94.0055 93.9107 92.8702 93.6372 91.7782C93.3636 90.6862 92.8767 89.6591 92.2045 88.7561C91.5322 87.8531 90.6879 87.0921 89.7203 86.5168C88.7526 85.9416 87.6807 85.5634 86.5663 85.4043C85.4519 85.2451 84.3169 85.308 83.2269 85.5893L59.7347 91.4688V68.2667C59.7347 66.0035 58.8356 63.833 57.2353 62.2327C55.635 60.6324 53.4645 59.7333 51.2013 59.7333C48.9381 59.7333 46.7677 60.6324 45.1674 62.2327C43.567 63.833 42.668 66.0035 42.668 68.2667V91.4688L19.1416 85.5893C16.9526 85.0575 14.6422 85.4129 12.7142 86.5778C10.7862 87.7427 9.39697 89.6227 8.84956 91.8078C8.30216 93.9929 8.64097 96.3058 9.79209 98.2421C10.9432 100.178 12.8133 101.581 14.9944 102.144ZM409.601 392.533C407.338 392.533 405.168 393.432 403.567 395.033C401.967 396.633 401.068 398.803 401.068 401.067V424.269L377.542 418.389C376.452 418.108 375.317 418.045 374.202 418.204C373.088 418.363 372.016 418.742 371.048 419.317C370.081 419.892 369.236 420.653 368.564 421.556C367.892 422.459 367.405 423.486 367.131 424.578C366.858 425.67 366.803 426.806 366.97 427.919C367.137 429.032 367.523 430.101 368.105 431.065C368.687 432.028 369.454 432.867 370.362 433.533C371.27 434.199 372.3 434.678 373.394 434.944L395.061 440.363L377.141 464.256C375.783 466.067 375.2 468.342 375.52 470.583C375.84 472.823 377.037 474.845 378.847 476.203C380.658 477.561 382.934 478.144 385.174 477.824C387.414 477.504 389.436 476.307 390.794 474.496L409.601 449.417L428.375 474.453C429.047 475.35 429.889 476.105 430.854 476.676C431.818 477.247 432.885 477.622 433.995 477.781C435.104 477.939 436.234 477.878 437.319 477.6C438.405 477.322 439.425 476.832 440.321 476.16C441.218 475.488 441.973 474.645 442.544 473.681C443.115 472.717 443.49 471.649 443.649 470.54C443.807 469.431 443.746 468.301 443.468 467.216C443.19 466.13 442.7 465.11 442.028 464.213L424.108 440.32L445.766 434.901C446.875 434.652 447.924 434.183 448.849 433.522C449.775 432.862 450.559 432.023 451.156 431.055C451.753 430.086 452.15 429.009 452.325 427.885C452.499 426.761 452.447 425.614 452.172 424.511C451.897 423.407 451.403 422.37 450.722 421.46C450.04 420.55 449.183 419.785 448.201 419.211C447.22 418.636 446.133 418.264 445.006 418.116C443.878 417.967 442.732 418.046 441.636 418.347L418.135 424.269V401.067C418.135 398.803 417.236 396.633 415.635 395.033C414.035 393.432 411.865 392.533 409.601 392.533Z" fill="#FF3A1F"/>
</g>
<defs>
<clipPath id="clip0_213_6331">
<rect width="512" height="512" fill="white"/>
</clipPath>
</defs>
</svg>
