<svg width="512" height="512" viewBox="0 0 512 512" fill="none" xmlns="http://www.w3.org/2000/svg">
<path d="M53.44 483.254C66.2556 502.333 89.276 512 121.861 512C186.895 512 203.644 472.419 218.422 437.503C222.748 426.489 227.881 415.808 233.781 405.55C244.616 387.939 264.215 370.089 286.904 349.424C327.151 312.821 376.22 267.975 394.044 204.426C396.396 204.693 398.76 204.83 401.127 204.836C432.107 204.782 459.166 183.871 467.031 153.906C474.896 123.94 461.594 92.4355 434.633 77.1743C438.494 48.0306 423.235 19.6938 396.778 6.87622C370.321 -5.94133 338.627 -0.352964 318.149 20.7406C286.71 6.35239 252.417 -0.719145 217.85 0.0579892C144.302 0.0579892 87.3392 36.2009 61.5371 99.2208C41.2724 148.862 50.8033 180.176 59.2164 207.812C65.8036 229.519 71.051 246.643 61.5371 269.868C31.0166 344.484 45.4199 388.52 51.2983 401.515C44.703 419.194 34.9001 455.686 53.44 483.254ZM401.041 153.641C401.041 142.308 399.857 131.007 397.508 119.92C398.696 119.657 399.909 119.52 401.126 119.51C410.551 119.51 418.191 127.151 418.191 136.576C418.191 146 410.551 153.641 401.126 153.641H401.041ZM452.32 136.576C452.292 164.837 429.387 187.742 401.126 187.77C400.102 187.77 399.035 187.651 397.986 187.582C398.088 186.993 398.251 186.43 398.353 185.833C399.22 180.795 399.869 175.722 400.299 170.629C400.589 170.629 400.837 170.706 401.152 170.706C420 170.706 435.281 155.425 435.281 136.577C435.281 117.728 420 102.447 401.152 102.447C382.303 102.447 367.023 117.728 367.023 136.577C367.023 138.839 366.124 141.01 364.524 142.61C362.923 144.21 360.753 145.109 358.49 145.109C356.228 145.109 354.057 144.21 352.457 142.61C350.857 141.01 349.958 138.839 349.958 136.577C349.958 108.303 372.879 85.3823 401.153 85.3823C429.426 85.3823 452.347 108.303 452.347 136.577L452.32 136.576ZM383.908 70.603C381.924 71.117 379.965 71.7236 378.037 72.4208C373.354 65.1524 367.986 58.3494 362.005 52.1051C364.736 51.2457 367.64 51.0912 370.447 51.6559C373.253 52.2207 375.872 53.4864 378.058 55.3352C380.244 57.184 381.926 59.5558 382.949 62.2299C383.972 64.9039 384.302 67.7933 383.908 70.629V70.603ZM366.997 17.1221C373.906 17.1049 380.748 18.4925 387.105 21.2005C393.462 23.9084 399.202 27.8803 403.978 32.8749C408.753 37.8694 412.463 43.7824 414.882 50.2548C417.302 56.7272 418.381 63.6239 418.054 70.526C412.526 69.0809 406.839 68.3385 401.126 68.3163C401.126 49.4674 385.845 34.1871 366.997 34.1871C348.148 34.1871 332.867 49.4674 332.867 68.3163C332.867 73.0287 329.048 76.8483 324.335 76.8483C319.623 76.8483 315.803 73.0287 315.803 68.3163C315.83 40.0545 338.735 17.1511 366.997 17.1221ZM67.9964 396.685C67.7664 396.284 44.84 355.858 77.3823 276.319C89.148 247.496 82.2368 224.792 75.5475 202.838C67.5954 176.712 59.3363 149.698 77.3823 105.671C100.719 48.5725 150.607 17.1221 217.85 17.1221C248.712 16.4278 279.36 22.3969 307.705 34.6221C301.831 44.8801 298.739 56.4953 298.737 68.3163C298.737 82.4527 310.198 93.9134 324.334 93.9134C338.471 93.9134 349.931 82.4527 349.931 68.3163C349.938 67.0724 350.081 65.8335 350.358 64.6217C354.91 69.4515 359.048 74.6545 362.73 80.1759C353.534 86.4323 346.006 94.8411 340.802 104.67C335.597 114.5 332.873 125.452 332.866 136.575C332.912 149.632 342.779 160.561 355.764 161.939C368.748 163.316 380.688 154.698 383.472 141.942C383.771 145.807 383.975 149.698 383.975 153.64C384.008 163.453 383.191 173.25 381.534 182.922C369.93 250.781 319.734 296.488 275.46 336.812C251.809 358.347 231.382 376.914 219.283 396.615C212.906 407.597 207.365 419.042 202.705 430.855C188.158 465.24 175.589 494.933 121.861 494.933C95.3083 494.933 77.0573 487.8 67.6044 473.738C56.9476 457.877 57.3146 431.93 68.5853 404.302C69.0765 403.072 69.2789 401.746 69.1768 400.425C69.0747 399.105 68.6708 397.825 67.9964 396.685Z" fill="#FF3A1F"/>
<path d="M103.175 392.547C104.091 392.548 105.002 392.402 105.871 392.112C107.083 391.702 133.866 382.248 136.989 340.849C189.096 335.815 221.945 283.879 221.945 247.497C221.945 210.919 174.395 161.679 168.976 156.2C167.364 154.73 165.249 153.934 163.067 153.975C160.886 154.016 158.803 154.892 157.247 156.422C155.691 157.952 154.78 160.02 154.702 162.2C154.624 164.381 155.384 166.509 156.827 168.146C170.197 181.729 204.881 222.421 204.881 247.497C204.881 275.901 178.653 317.761 138.235 323.563C140.804 312.903 145.836 302.994 152.927 294.63C162.569 281.524 173.499 266.678 162.005 243.682C159.564 238.802 156.459 233.444 153.097 227.616C132.44 191.882 106.723 147.412 160.017 100.305C184.986 76.5153 221.815 70.0821 253.37 83.9995C286.999 99.5897 308.172 133.649 307.269 170.706C307.269 233.265 256.142 247.198 254.001 247.753C251.839 248.334 249.993 249.74 248.858 251.669C247.724 253.599 247.393 255.896 247.937 258.067C248.481 260.238 249.856 262.109 251.766 263.275C253.676 264.442 255.967 264.812 258.147 264.305C298.914 251.767 326.1 213.319 324.333 170.705C324.912 127.016 299.885 87.0241 260.34 68.4443C222.697 51.6712 178.659 59.1953 148.72 87.5141C84.9658 143.871 118.37 201.634 138.327 236.156C141.492 241.634 144.436 246.711 146.74 251.31C153.293 264.415 149.155 270.934 139.18 284.518C127.453 297.933 120.757 315.009 120.238 332.819C120.238 367.955 101.39 375.566 100.357 375.959C98.4526 376.623 96.8448 377.94 95.8189 379.676C94.7931 381.412 94.4155 383.456 94.7532 385.444C95.091 387.432 96.1222 389.237 97.6639 390.537C99.2055 391.837 101.158 392.549 103.175 392.547ZM119.557 477.87C138.406 477.87 153.686 462.59 153.686 443.741C153.686 424.892 138.406 409.612 119.557 409.612C100.708 409.612 85.4277 424.892 85.4277 443.741C85.4277 462.59 100.708 477.87 119.557 477.87ZM119.557 426.676C128.982 426.676 136.622 434.316 136.622 443.741C136.622 453.166 128.982 460.806 119.557 460.806C110.132 460.806 102.492 453.166 102.492 443.741C102.492 434.316 110.133 426.676 119.557 426.676Z" fill="#FF3A1F"/>
</svg>
