<svg width="74" height="19" viewBox="0 0 74 19" fill="none" xmlns="http://www.w3.org/2000/svg">
<mask id="mask0_8629_25" style="mask-type:luminance" maskUnits="userSpaceOnUse" x="0" y="0" width="74" height="19">
<path d="M0 0H73.5807V19H0V0Z" fill="white"/>
</mask>
<g mask="url(#mask0_8629_25)">
<path d="M3.59569 5.12604C3.24737 5.18454 1.837 4.99733 2.08271 5.59856C12.1083 7.61017 31.2253 8.87743 36.7867 18.9589C36.7885 18.9616 36.7894 18.9634 36.7903 18.9661C36.7912 18.9661 36.7912 18.9661 36.7912 18.9661C36.793 18.9634 36.793 18.9616 36.7948 18.9589C42.3571 8.87653 61.4732 7.61017 71.4989 5.59856C71.7446 4.99733 70.3342 5.18454 69.9859 5.12604C68.6682 5.08193 69.6745 3.69946 70.3522 3.35024C71.5709 2.5231 72.6851 1.50605 73.5816 0.314382L73.1973 0.0263672C66.536 7.93688 54.073 6.81722 45.3426 11.3094C44.7306 11.5344 44.1248 12.0528 43.5344 12.1851C43.7837 10.4273 45.1275 8.87383 46.3515 7.53186C48.3154 5.57966 51.0534 3.68596 53.8408 2.80031C46.4046 4.64181 39.0801 9.92869 36.7894 17.4423C34.5015 9.92869 27.176 4.64181 19.7407 2.80031C22.5282 3.68596 25.2661 5.57966 27.23 7.53186C28.4541 8.87383 29.7979 10.4273 30.0472 12.1851C29.4567 12.0528 28.851 11.5344 28.239 11.3094C19.5085 6.81722 7.04557 7.93688 0.38432 0.0263672L0 0.314382C0.896447 1.50605 2.01071 2.5231 3.22937 3.35024C3.90711 3.69946 4.91336 5.08193 3.59569 5.12604Z" fill="#FF204E"/>
</g>
</svg>
